<svg width="20" height="20" viewBox="0 0 20 20" fill="none" xmlns="http://www.w3.org/2000/svg">
    <path opacity="0.4"
        d="M16.9538 8.51341H14.5893C12.6502 8.51341 11.0711 6.93432 11.0711 4.99523V2.63068C11.0711 2.18068 10.7029 1.8125 10.2529 1.8125H6.78383C4.26383 1.8125 2.22656 3.44886 2.22656 6.36977V13.6189C2.22656 16.5398 4.26383 18.1761 6.78383 18.1761H13.2147C15.7347 18.1761 17.772 16.5398 17.772 13.6189V9.33159C17.772 8.88159 17.4038 8.51341 16.9538 8.51341Z"
        fill="#A1A5B7" />
    <path
        d="M13.1039 1.98755C12.7684 1.6521 12.1875 1.88119 12.1875 2.34755V5.20301C12.1875 6.39755 13.202 7.38755 14.4375 7.38755C15.2148 7.39573 16.2948 7.39573 17.2193 7.39573C17.6857 7.39573 17.9311 6.84755 17.6039 6.52028C16.4257 5.33392 14.3148 3.19846 13.1039 1.98755Z"
        fill="#A1A5B7" />
    <path
        d="M9.61483 10.3789L7.97847 8.7425C7.97028 8.73432 7.9621 8.73432 7.9621 8.72614C7.91301 8.67705 7.84756 8.63614 7.7821 8.60341C7.77392 8.60341 7.77392 8.60341 7.76574 8.60341C7.70028 8.57886 7.63483 8.57068 7.56937 8.5625C7.54483 8.5625 7.52847 8.5625 7.50392 8.5625C7.45483 8.5625 7.39756 8.57886 7.34847 8.59523C7.32392 8.60341 7.30756 8.61159 7.29119 8.61977C7.22574 8.6525 7.16028 8.68523 7.11119 8.7425L5.47483 10.3789C5.23756 10.6161 5.23756 11.0089 5.47483 11.2461C5.7121 11.4834 6.10483 11.4834 6.3421 11.2461L6.93119 10.657V14.0852C6.93119 14.4207 7.20938 14.6989 7.54483 14.6989C7.88028 14.6989 8.15847 14.4207 8.15847 14.0852V10.657L8.74756 11.2461C8.87028 11.3689 9.02574 11.4261 9.18119 11.4261C9.33665 11.4261 9.4921 11.3689 9.61483 11.2461C9.8521 11.0089 9.8521 10.6161 9.61483 10.3789Z"
        fill="#A1A5B7" />
</svg>
