<svg width="445" height="395" viewBox="0 0 445 395" fill="none" xmlns="http://www.w3.org/2000/svg">
<g filter="url(#filter0_d_1215_5922)">
<rect x="94" y="44" width="256" height="256" rx="80" fill="white"/>
</g>
<path d="M215.235 154.42L211.72 150.927C211.245 150.476 210.866 149.934 210.607 149.333C210.348 148.733 210.215 148.087 210.215 147.433C210.215 146.78 210.348 146.134 210.607 145.533C210.866 144.933 211.245 144.391 211.72 143.94L226.28 129.469C228.733 126.951 231.702 124.986 234.986 123.706C238.269 122.426 241.791 121.862 245.313 122.051C248.835 122.241 252.275 123.179 255.4 124.803C258.526 126.427 261.264 128.699 263.431 131.465C267.434 136.471 269.398 142.79 268.933 149.168C268.468 155.546 265.608 161.517 260.921 165.897L246.863 179.869C246.41 180.342 245.865 180.718 245.261 180.975C244.657 181.232 244.006 181.365 243.349 181.365C242.692 181.365 242.042 181.232 241.438 180.975C240.833 180.718 240.288 180.342 239.835 179.869L236.321 176.376C235.845 175.925 235.466 175.383 235.207 174.783C234.949 174.182 234.815 173.536 234.815 172.883C234.815 172.229 234.949 171.583 235.207 170.983C235.466 170.382 235.845 169.84 236.321 169.39L250.88 154.919C251.959 153.88 252.789 152.613 253.308 151.211C253.827 149.809 254.021 148.31 253.877 146.823C253.732 145.337 253.252 143.902 252.472 142.625C251.693 141.349 250.634 140.263 249.374 139.449C247.292 138.093 244.799 137.501 242.325 137.774C239.851 138.047 237.55 139.169 235.818 140.946L221.259 155.418C220.293 155.965 219.166 156.164 218.069 155.982C216.971 155.801 215.971 155.249 215.235 154.42ZM215.235 189.849L201.679 203.322C199.955 205.111 197.653 206.241 195.175 206.515C192.698 206.789 190.202 206.188 188.124 204.819C186.958 203.934 185.987 202.819 185.274 201.545C184.56 200.27 184.119 198.863 183.978 197.411C183.836 195.959 183.998 194.494 184.452 193.107C184.907 191.72 185.644 190.441 186.618 189.35L200.675 175.378C201.151 174.927 201.53 174.385 201.789 173.785C202.047 173.184 202.181 172.538 202.181 171.885C202.181 171.231 202.047 170.585 201.789 169.985C201.53 169.384 201.151 168.842 200.675 168.392L197.161 164.899C196.708 164.426 196.162 164.049 195.558 163.792C194.954 163.535 194.304 163.402 193.647 163.402C192.99 163.402 192.339 163.535 191.735 163.792C191.131 164.049 190.586 164.426 190.132 164.899L177.079 177.873C172.392 182.253 169.532 188.224 169.067 194.602C168.602 200.98 170.566 207.298 174.569 212.304C176.807 214.966 179.572 217.142 182.693 218.696C185.813 220.25 189.223 221.149 192.708 221.336C196.193 221.523 199.68 220.995 202.951 219.785C206.222 218.574 209.207 216.707 211.72 214.3L225.778 200.328C226.253 199.877 226.632 199.335 226.891 198.735C227.15 198.134 227.283 197.488 227.283 196.835C227.283 196.182 227.15 195.535 226.891 194.935C226.632 194.334 226.253 193.793 225.778 193.342L222.263 189.849C221.811 189.375 221.266 188.997 220.661 188.739C220.057 188.481 219.407 188.348 218.749 188.348C218.091 188.348 217.441 188.481 216.837 188.739C216.232 188.997 215.687 189.375 215.235 189.849Z" fill="#DB0916"/>
<path opacity="0.3" d="M184.048 156.937L173.003 153.943C172.375 153.782 171.785 153.499 171.267 153.11C170.75 152.722 170.315 152.235 169.988 151.678C169.662 151.121 169.449 150.505 169.363 149.866C169.278 149.227 169.32 148.577 169.489 147.955L170.493 141.468C170.651 140.679 170.994 139.939 171.494 139.306C171.993 138.674 172.636 138.167 173.369 137.827C174.102 137.487 174.905 137.323 175.714 137.349C176.522 137.374 177.314 137.589 178.023 137.975L189.068 143.963C190.083 144.556 190.875 145.461 191.328 146.541C191.781 147.62 191.869 148.817 191.579 149.951L190.575 153.444C190.028 154.661 189.091 155.664 187.91 156.296C186.729 156.928 185.371 157.153 184.048 156.937ZM201.118 140.47H202.122C202.715 140.47 203.303 140.354 203.851 140.128C204.399 139.902 204.897 139.571 205.317 139.154C205.736 138.737 206.069 138.242 206.296 137.697C206.523 137.152 206.64 136.568 206.64 135.979L207.142 127.496C207.179 126.765 207.061 126.035 206.796 125.353C206.532 124.67 206.126 124.05 205.606 123.533C205.086 123.016 204.462 122.613 203.776 122.35C203.089 122.087 202.354 121.97 201.62 122.007H198.105C197.374 122.006 196.653 122.175 196 122.499C195.346 122.824 194.777 123.296 194.339 123.877C193.9 124.458 193.604 125.133 193.473 125.847C193.343 126.562 193.382 127.297 193.587 127.995L195.595 136.478C195.919 137.67 196.643 138.715 197.648 139.442C198.653 140.168 199.877 140.531 201.118 140.47ZM232.244 202.845L234.754 218.314C234.839 218.928 235.056 219.516 235.393 220.037C235.729 220.559 236.175 221.001 236.701 221.334C237.226 221.666 237.819 221.881 238.436 221.963C239.054 222.044 239.682 221.991 240.277 221.807L247.306 219.811C247.932 219.59 248.502 219.237 248.978 218.777C249.454 218.316 249.824 217.758 250.062 217.142C250.301 216.526 250.402 215.865 250.36 215.206C250.317 214.547 250.132 213.905 249.816 213.324L242.787 199.352C242.374 198.42 241.646 197.661 240.73 197.205C239.813 196.75 238.765 196.627 237.767 196.857L235.257 197.356C234.204 197.798 233.334 198.582 232.787 199.578C232.24 200.575 232.049 201.727 232.244 202.845ZM251.322 193.364L258.351 197.855C258.86 198.194 259.441 198.413 260.048 198.494C260.655 198.576 261.274 198.518 261.855 198.325C262.437 198.133 262.966 197.81 263.403 197.383C263.84 196.955 264.172 196.434 264.375 195.859L265.881 191.368C266.098 190.738 266.159 190.066 266.06 189.408C265.96 188.749 265.702 188.125 265.308 187.586C264.914 187.048 264.396 186.612 263.796 186.315C263.197 186.017 262.535 185.868 261.865 185.879H253.33C252.453 185.901 251.606 186.205 250.917 186.745C250.228 187.285 249.734 188.032 249.508 188.875C249.282 189.717 249.336 190.61 249.663 191.419C249.99 192.229 250.572 192.911 251.322 193.364Z" fill="#DB0916"/>
<g filter="url(#filter1_d_1215_5922)">
<rect x="60" y="89" width="68" height="68" rx="34" fill="white"/>
</g>
<path opacity="0.4" d="M106.982 110.031C102.049 105.115 94.0491 105.115 89.1491 110.031C85.6991 113.448 84.6658 118.365 85.9991 122.698L78.1658 130.531C77.6158 131.098 77.2324 132.215 77.3491 133.015L77.8491 136.648C78.0324 137.848 79.1491 138.981 80.3491 139.148L83.9824 139.648C84.7824 139.765 85.8991 139.398 86.4658 138.815L87.8324 137.448C88.1658 137.131 88.1658 136.598 87.8324 136.265L84.5991 133.031C84.1158 132.548 84.1158 131.748 84.5991 131.265C85.0824 130.781 85.8824 130.781 86.3658 131.265L89.6158 134.515C89.9324 134.831 90.4658 134.831 90.7824 134.515L94.3158 130.998C98.6324 132.348 103.549 131.298 106.982 127.881C111.899 122.965 111.899 114.948 106.982 110.031ZM98.1658 122.998C95.8658 122.998 93.9991 121.131 93.9991 118.831C93.9991 116.531 95.8658 114.665 98.1658 114.665C100.466 114.665 102.332 116.531 102.332 118.831C102.332 121.131 100.466 122.998 98.1658 122.998Z" fill="#DB0916"/>
<path d="M98.1667 122.997C100.468 122.997 102.333 121.132 102.333 118.831C102.333 116.53 100.468 114.664 98.1667 114.664C95.8655 114.664 94 116.53 94 118.831C94 121.132 95.8655 122.997 98.1667 122.997Z" fill="#DB0916"/>
<g filter="url(#filter2_d_1215_5922)">
<rect x="289" y="223" width="96" height="96" rx="48" fill="white"/>
</g>
<path opacity="0.4" d="M310.336 273.353V268.66C310.336 265.886 312.603 263.593 315.403 263.593C320.229 263.593 322.203 260.18 319.776 255.993C318.389 253.593 319.216 250.473 321.643 249.086L326.256 246.446C328.363 245.193 331.083 245.94 332.336 248.046L332.629 248.553C335.029 252.74 338.976 252.74 341.403 248.553L341.696 248.046C342.949 245.94 345.669 245.193 347.776 246.446L352.389 249.086C354.816 250.473 355.643 253.593 354.256 255.993C351.829 260.18 353.803 263.593 358.629 263.593C361.403 263.593 363.696 265.86 363.696 268.66V273.353C363.696 276.126 361.429 278.42 358.629 278.42C353.803 278.42 351.829 281.833 354.256 286.02C355.643 288.446 354.816 291.54 352.389 292.926L347.776 295.566C345.669 296.82 342.949 296.073 341.696 293.966L341.403 293.46C339.003 289.273 335.056 289.273 332.629 293.46L332.336 293.966C331.083 296.073 328.363 296.82 326.256 295.566L321.643 292.926C319.216 291.54 318.389 288.42 319.776 286.02C322.203 281.833 320.229 278.42 315.403 278.42C312.603 278.42 310.336 276.126 310.336 273.353Z" fill="#DB0916"/>
<path d="M337.003 279.669C341.789 279.669 345.669 275.789 345.669 271.003C345.669 266.216 341.789 262.336 337.003 262.336C332.216 262.336 328.336 266.216 328.336 271.003C328.336 275.789 332.216 279.669 337.003 279.669Z" fill="#DB0916"/>
<defs>
<filter id="filter0_d_1215_5922" x="34" y="0" width="376" height="376" filterUnits="userSpaceOnUse" color-interpolation-filters="sRGB">
<feFlood flood-opacity="0" result="BackgroundImageFix"/>
<feColorMatrix in="SourceAlpha" type="matrix" values="0 0 0 0 0 0 0 0 0 0 0 0 0 0 0 0 0 0 127 0" result="hardAlpha"/>
<feOffset dy="16"/>
<feGaussianBlur stdDeviation="30"/>
<feComposite in2="hardAlpha" operator="out"/>
<feColorMatrix type="matrix" values="0 0 0 0 0 0 0 0 0 0 0 0 0 0 0 0 0 0 0.1 0"/>
<feBlend mode="normal" in2="BackgroundImageFix" result="effect1_dropShadow_1215_5922"/>
<feBlend mode="normal" in="SourceGraphic" in2="effect1_dropShadow_1215_5922" result="shape"/>
</filter>
<filter id="filter1_d_1215_5922" x="0" y="45" width="188" height="188" filterUnits="userSpaceOnUse" color-interpolation-filters="sRGB">
<feFlood flood-opacity="0" result="BackgroundImageFix"/>
<feColorMatrix in="SourceAlpha" type="matrix" values="0 0 0 0 0 0 0 0 0 0 0 0 0 0 0 0 0 0 127 0" result="hardAlpha"/>
<feOffset dy="16"/>
<feGaussianBlur stdDeviation="30"/>
<feComposite in2="hardAlpha" operator="out"/>
<feColorMatrix type="matrix" values="0 0 0 0 0 0 0 0 0 0 0 0 0 0 0 0 0 0 0.1 0"/>
<feBlend mode="normal" in2="BackgroundImageFix" result="effect1_dropShadow_1215_5922"/>
<feBlend mode="normal" in="SourceGraphic" in2="effect1_dropShadow_1215_5922" result="shape"/>
</filter>
<filter id="filter2_d_1215_5922" x="229" y="179" width="216" height="216" filterUnits="userSpaceOnUse" color-interpolation-filters="sRGB">
<feFlood flood-opacity="0" result="BackgroundImageFix"/>
<feColorMatrix in="SourceAlpha" type="matrix" values="0 0 0 0 0 0 0 0 0 0 0 0 0 0 0 0 0 0 127 0" result="hardAlpha"/>
<feOffset dy="16"/>
<feGaussianBlur stdDeviation="30"/>
<feComposite in2="hardAlpha" operator="out"/>
<feColorMatrix type="matrix" values="0 0 0 0 0 0 0 0 0 0 0 0 0 0 0 0 0 0 0.1 0"/>
<feBlend mode="normal" in2="BackgroundImageFix" result="effect1_dropShadow_1215_5922"/>
<feBlend mode="normal" in="SourceGraphic" in2="effect1_dropShadow_1215_5922" result="shape"/>
</filter>
</defs>
</svg>
