<svg width="445" height="395" viewBox="0 0 445 395" fill="none" xmlns="http://www.w3.org/2000/svg">
<g filter="url(#filter0_d_1215_6505)">
<rect x="94" y="44" width="256" height="256" rx="80" fill="white"/>
</g>
<path opacity="0.3" d="M178 201.005C172.961 201.005 168.128 199.003 164.565 195.44C161.002 191.877 159 187.044 159 182.005C159 176.966 161.002 172.133 164.565 168.57C168.128 165.007 172.961 163.005 178 163.005H178.633C178.11 160.937 177.896 158.802 178 156.672C177.958 152.502 178.749 148.365 180.326 144.504C181.903 140.644 184.234 137.136 187.182 134.187C190.131 131.239 193.639 128.908 197.499 127.331C201.36 125.754 205.497 124.963 209.667 125.005C215.219 124.905 220.693 126.328 225.494 129.119C230.295 131.91 234.24 135.963 236.9 140.838C240.142 138.841 243.859 137.748 247.667 137.672C250.725 137.602 253.753 138.288 256.483 139.67C259.212 141.052 261.558 143.086 263.313 145.593C265.067 148.099 266.175 151 266.54 154.037C266.904 157.075 266.512 160.155 265.4 163.005H266.667C271.706 163.005 276.538 165.007 280.102 168.57C283.665 172.133 285.667 176.966 285.667 182.005C285.667 187.044 283.665 191.877 280.102 195.44C276.538 199.003 271.706 201.005 266.667 201.005H178ZM178 185.805H228.667L207.767 164.905C207.195 164.305 206.507 163.827 205.745 163.501C204.983 163.174 204.162 163.006 203.333 163.006C202.504 163.006 201.684 163.174 200.922 163.501C200.16 163.827 199.472 164.305 198.9 164.905L178 185.805Z" fill="#DB0916"/>
<path d="M254.003 216.205V182.005C254.003 180.325 253.335 178.715 252.148 177.527C250.96 176.339 249.349 175.672 247.669 175.672C245.99 175.672 244.379 176.339 243.191 177.527C242.003 178.715 241.336 180.325 241.336 182.005V216.205H254.003Z" fill="#DB0916"/>
<path opacity="0.3" d="M222.336 216.203H273.003L252.103 237.103C251.531 237.703 250.843 238.181 250.081 238.507C249.319 238.834 248.498 239.002 247.669 239.002C246.84 239.002 246.02 238.834 245.258 238.507C244.496 238.181 243.808 237.703 243.236 237.103L222.336 216.203Z" fill="#DB0916"/>
<path d="M196.995 185.805V220.005C196.944 220.85 197.073 221.696 197.374 222.487C197.674 223.279 198.139 223.997 198.737 224.596C199.336 225.194 200.055 225.659 200.846 225.959C201.637 226.26 202.484 226.389 203.328 226.338C204.173 226.389 205.02 226.26 205.811 225.959C206.602 225.659 207.321 225.194 207.92 224.596C208.518 223.997 208.983 223.279 209.283 222.487C209.584 221.696 209.713 220.85 209.662 220.005V185.805H196.995Z" fill="#DB0916"/>
<g filter="url(#filter1_d_1215_6505)">
<rect x="60" y="89" width="68" height="68" rx="34" fill="white"/>
</g>
<path opacity="0.4" d="M106.982 110.031C102.049 105.115 94.0491 105.115 89.1491 110.031C85.6991 113.448 84.6658 118.365 85.9991 122.698L78.1658 130.531C77.6158 131.098 77.2324 132.215 77.3491 133.015L77.8491 136.648C78.0324 137.848 79.1491 138.981 80.3491 139.148L83.9824 139.648C84.7824 139.765 85.8991 139.398 86.4658 138.815L87.8324 137.448C88.1658 137.131 88.1658 136.598 87.8324 136.265L84.5991 133.031C84.1158 132.548 84.1158 131.748 84.5991 131.265C85.0824 130.781 85.8824 130.781 86.3658 131.265L89.6158 134.515C89.9324 134.831 90.4658 134.831 90.7824 134.515L94.3158 130.998C98.6324 132.348 103.549 131.298 106.982 127.881C111.899 122.965 111.899 114.948 106.982 110.031ZM98.1658 122.998C95.8658 122.998 93.9991 121.131 93.9991 118.831C93.9991 116.531 95.8658 114.665 98.1658 114.665C100.466 114.665 102.332 116.531 102.332 118.831C102.332 121.131 100.466 122.998 98.1658 122.998Z" fill="#DB0916"/>
<path d="M98.1667 122.997C100.468 122.997 102.333 121.132 102.333 118.831C102.333 116.53 100.468 114.664 98.1667 114.664C95.8655 114.664 94 116.53 94 118.831C94 121.132 95.8655 122.997 98.1667 122.997Z" fill="#DB0916"/>
<g filter="url(#filter2_d_1215_6505)">
<rect x="289" y="223" width="96" height="96" rx="48" fill="white"/>
</g>
<path opacity="0.4" d="M310.336 273.353V268.66C310.336 265.886 312.603 263.593 315.403 263.593C320.229 263.593 322.203 260.18 319.776 255.993C318.389 253.593 319.216 250.473 321.643 249.086L326.256 246.446C328.363 245.193 331.083 245.94 332.336 248.046L332.629 248.553C335.029 252.74 338.976 252.74 341.403 248.553L341.696 248.046C342.949 245.94 345.669 245.193 347.776 246.446L352.389 249.086C354.816 250.473 355.643 253.593 354.256 255.993C351.829 260.18 353.803 263.593 358.629 263.593C361.403 263.593 363.696 265.86 363.696 268.66V273.353C363.696 276.126 361.429 278.42 358.629 278.42C353.803 278.42 351.829 281.833 354.256 286.02C355.643 288.446 354.816 291.54 352.389 292.926L347.776 295.566C345.669 296.82 342.949 296.073 341.696 293.966L341.403 293.46C339.003 289.273 335.056 289.273 332.629 293.46L332.336 293.966C331.083 296.073 328.363 296.82 326.256 295.566L321.643 292.926C319.216 291.54 318.389 288.42 319.776 286.02C322.203 281.833 320.229 278.42 315.403 278.42C312.603 278.42 310.336 276.126 310.336 273.353Z" fill="#DB0916"/>
<path d="M337.003 279.669C341.789 279.669 345.669 275.789 345.669 271.003C345.669 266.216 341.789 262.336 337.003 262.336C332.216 262.336 328.336 266.216 328.336 271.003C328.336 275.789 332.216 279.669 337.003 279.669Z" fill="#DB0916"/>
<defs>
<filter id="filter0_d_1215_6505" x="34" y="0" width="376" height="376" filterUnits="userSpaceOnUse" color-interpolation-filters="sRGB">
<feFlood flood-opacity="0" result="BackgroundImageFix"/>
<feColorMatrix in="SourceAlpha" type="matrix" values="0 0 0 0 0 0 0 0 0 0 0 0 0 0 0 0 0 0 127 0" result="hardAlpha"/>
<feOffset dy="16"/>
<feGaussianBlur stdDeviation="30"/>
<feComposite in2="hardAlpha" operator="out"/>
<feColorMatrix type="matrix" values="0 0 0 0 0 0 0 0 0 0 0 0 0 0 0 0 0 0 0.1 0"/>
<feBlend mode="normal" in2="BackgroundImageFix" result="effect1_dropShadow_1215_6505"/>
<feBlend mode="normal" in="SourceGraphic" in2="effect1_dropShadow_1215_6505" result="shape"/>
</filter>
<filter id="filter1_d_1215_6505" x="0" y="45" width="188" height="188" filterUnits="userSpaceOnUse" color-interpolation-filters="sRGB">
<feFlood flood-opacity="0" result="BackgroundImageFix"/>
<feColorMatrix in="SourceAlpha" type="matrix" values="0 0 0 0 0 0 0 0 0 0 0 0 0 0 0 0 0 0 127 0" result="hardAlpha"/>
<feOffset dy="16"/>
<feGaussianBlur stdDeviation="30"/>
<feComposite in2="hardAlpha" operator="out"/>
<feColorMatrix type="matrix" values="0 0 0 0 0 0 0 0 0 0 0 0 0 0 0 0 0 0 0.1 0"/>
<feBlend mode="normal" in2="BackgroundImageFix" result="effect1_dropShadow_1215_6505"/>
<feBlend mode="normal" in="SourceGraphic" in2="effect1_dropShadow_1215_6505" result="shape"/>
</filter>
<filter id="filter2_d_1215_6505" x="229" y="179" width="216" height="216" filterUnits="userSpaceOnUse" color-interpolation-filters="sRGB">
<feFlood flood-opacity="0" result="BackgroundImageFix"/>
<feColorMatrix in="SourceAlpha" type="matrix" values="0 0 0 0 0 0 0 0 0 0 0 0 0 0 0 0 0 0 127 0" result="hardAlpha"/>
<feOffset dy="16"/>
<feGaussianBlur stdDeviation="30"/>
<feComposite in2="hardAlpha" operator="out"/>
<feColorMatrix type="matrix" values="0 0 0 0 0 0 0 0 0 0 0 0 0 0 0 0 0 0 0.1 0"/>
<feBlend mode="normal" in2="BackgroundImageFix" result="effect1_dropShadow_1215_6505"/>
<feBlend mode="normal" in="SourceGraphic" in2="effect1_dropShadow_1215_6505" result="shape"/>
</filter>
</defs>
</svg>
