<svg width="445" height="395" viewBox="0 0 445 395" fill="none" xmlns="http://www.w3.org/2000/svg">
<g filter="url(#filter0_d_1215_16272)">
<rect x="94" y="44" width="256" height="256" rx="80" fill="white"/>
</g>
<path d="M268.976 181.388L210.641 123.054C209.734 122.044 208.518 121.365 207.183 121.122C205.848 120.879 204.47 121.087 203.266 121.713C202.067 122.199 201.042 123.034 200.324 124.11C199.607 125.186 199.23 126.454 199.242 127.747V210.22C199.23 211.514 199.607 212.781 200.324 213.857C201.042 214.933 202.067 215.769 203.266 216.255C204.052 216.788 205.002 217.026 205.948 216.925C207.372 216.786 208.747 216.328 209.971 215.584C214.793 211.768 219.956 208.401 225.392 205.527L235.45 228.994C236.177 230.862 237.477 232.452 239.163 233.536C240.85 234.62 242.836 235.143 244.837 235.029C246.213 235.135 247.594 234.905 248.86 234.358C250.102 233.842 251.229 233.082 252.174 232.125C253.118 231.167 253.862 230.03 254.362 228.781C254.862 227.532 255.107 226.196 255.083 224.851C255.06 223.506 254.768 222.179 254.224 220.948L244.167 196.81C251.001 194.855 257.941 193.288 264.953 192.116C266.248 192.063 267.486 191.568 268.461 190.714C269.437 189.861 270.091 188.699 270.317 187.423C271.658 186.082 270.987 183.4 268.976 181.388Z" fill="#DB0916"/>
<path opacity="0.3" d="M239.473 134.45C238.132 134.45 237.461 134.45 236.791 133.779C235.986 133.445 235.265 132.938 234.679 132.294C234.093 131.65 233.656 130.884 233.4 130.051C233.144 129.219 233.075 128.34 233.197 127.478C233.32 126.616 233.631 125.791 234.109 125.063L240.814 111.652C241.147 110.848 241.655 110.127 242.299 109.541C242.943 108.955 243.709 108.518 244.541 108.262C245.374 108.006 246.253 107.936 247.115 108.059C247.977 108.181 248.802 108.493 249.53 108.97C250.335 109.304 251.056 109.811 251.642 110.455C252.228 111.1 252.665 111.866 252.921 112.698C253.177 113.53 253.246 114.409 253.124 115.272C253.001 116.134 252.69 116.959 252.212 117.687L245.507 131.097C244.874 132.127 243.986 132.977 242.929 133.564C241.872 134.151 240.682 134.456 239.473 134.45ZM262.27 153.895L275.68 147.189C276.485 146.856 277.206 146.349 277.792 145.704C278.378 145.06 278.815 144.294 279.071 143.462C279.327 142.629 279.396 141.75 279.274 140.888C279.151 140.026 278.84 139.201 278.362 138.473C278.029 137.668 277.522 136.947 276.877 136.361C276.233 135.775 275.467 135.338 274.635 135.082C273.802 134.826 272.923 134.757 272.061 134.879C271.199 135.002 270.374 135.313 269.646 135.791L256.235 142.496C255.431 142.83 254.71 143.337 254.124 143.981C253.538 144.625 253.101 145.391 252.845 146.224C252.589 147.056 252.519 147.935 252.642 148.797C252.764 149.659 253.076 150.484 253.553 151.212C254.039 152.411 254.875 153.436 255.951 154.154C257.027 154.871 258.295 155.248 259.588 155.236C260.929 154.565 261.6 154.565 262.27 153.895ZM186.502 161.27C186.556 160.376 186.42 159.48 186.102 158.642C185.784 157.804 185.292 157.043 184.658 156.409C184.024 155.776 183.263 155.284 182.425 154.966C181.588 154.648 180.692 154.511 179.797 154.565H165.717C164.822 154.511 163.926 154.648 163.088 154.966C162.25 155.284 161.49 155.776 160.856 156.409C160.222 157.043 159.73 157.804 159.412 158.642C159.094 159.48 158.958 160.376 159.011 161.27C158.958 162.165 159.094 163.06 159.412 163.898C159.73 164.736 160.222 165.497 160.856 166.131C161.49 166.764 162.25 167.257 163.088 167.574C163.926 167.892 164.822 168.029 165.717 167.975H179.797C180.692 168.029 181.588 167.892 182.425 167.574C183.263 167.257 184.024 166.764 184.658 166.131C185.292 165.497 185.784 164.736 186.102 163.898C186.42 163.06 186.556 162.165 186.502 161.27ZM171.751 202.842L185.161 196.137C185.966 195.803 186.687 195.296 187.273 194.652C187.859 194.007 188.296 193.241 188.552 192.409C188.808 191.576 188.877 190.698 188.755 189.835C188.632 188.973 188.321 188.148 187.843 187.42C187.51 186.615 187.003 185.894 186.358 185.308C185.714 184.722 184.948 184.286 184.116 184.03C183.283 183.773 182.404 183.704 181.542 183.827C180.68 183.949 179.855 184.26 179.127 184.738L165.717 191.443C164.912 191.777 164.191 192.284 163.605 192.928C163.019 193.573 162.582 194.338 162.326 195.171C162.07 196.003 162.001 196.882 162.123 197.744C162.245 198.607 162.557 199.431 163.034 200.16C163.52 201.359 164.356 202.383 165.432 203.101C166.508 203.818 167.776 204.195 169.069 204.183C169.74 203.512 171.081 203.512 171.751 202.842Z" fill="#DB0916"/>
<g filter="url(#filter1_d_1215_16272)">
<rect x="60" y="89" width="68" height="68" rx="34" fill="white"/>
</g>
<path opacity="0.4" d="M106.982 110.031C102.049 105.115 94.0491 105.115 89.1491 110.031C85.6991 113.448 84.6658 118.365 85.9991 122.698L78.1658 130.531C77.6158 131.098 77.2324 132.215 77.3491 133.015L77.8491 136.648C78.0324 137.848 79.1491 138.981 80.3491 139.148L83.9824 139.648C84.7824 139.765 85.8991 139.398 86.4658 138.815L87.8324 137.448C88.1658 137.131 88.1658 136.598 87.8324 136.265L84.5991 133.031C84.1158 132.548 84.1158 131.748 84.5991 131.265C85.0824 130.781 85.8824 130.781 86.3658 131.265L89.6158 134.515C89.9324 134.831 90.4658 134.831 90.7824 134.515L94.3158 130.998C98.6324 132.348 103.549 131.298 106.982 127.881C111.899 122.965 111.899 114.948 106.982 110.031ZM98.1658 122.998C95.8658 122.998 93.9991 121.131 93.9991 118.831C93.9991 116.531 95.8658 114.665 98.1658 114.665C100.466 114.665 102.332 116.531 102.332 118.831C102.332 121.131 100.466 122.998 98.1658 122.998Z" fill="#DB0916"/>
<path d="M98.1667 122.997C100.468 122.997 102.333 121.132 102.333 118.831C102.333 116.53 100.468 114.664 98.1667 114.664C95.8655 114.664 94 116.53 94 118.831C94 121.132 95.8655 122.997 98.1667 122.997Z" fill="#DB0916"/>
<g filter="url(#filter2_d_1215_16272)">
<rect x="289" y="223" width="96" height="96" rx="48" fill="white"/>
</g>
<path opacity="0.4" d="M310.336 273.353V268.66C310.336 265.886 312.603 263.593 315.403 263.593C320.229 263.593 322.203 260.18 319.776 255.993C318.389 253.593 319.216 250.473 321.643 249.086L326.256 246.446C328.363 245.193 331.083 245.94 332.336 248.046L332.629 248.553C335.029 252.74 338.976 252.74 341.403 248.553L341.696 248.046C342.949 245.94 345.669 245.193 347.776 246.446L352.389 249.086C354.816 250.473 355.643 253.593 354.256 255.993C351.829 260.18 353.803 263.593 358.629 263.593C361.403 263.593 363.696 265.86 363.696 268.66V273.353C363.696 276.126 361.429 278.42 358.629 278.42C353.803 278.42 351.829 281.833 354.256 286.02C355.643 288.446 354.816 291.54 352.389 292.926L347.776 295.566C345.669 296.82 342.949 296.073 341.696 293.966L341.403 293.46C339.003 289.273 335.056 289.273 332.629 293.46L332.336 293.966C331.083 296.073 328.363 296.82 326.256 295.566L321.643 292.926C319.216 291.54 318.389 288.42 319.776 286.02C322.203 281.833 320.229 278.42 315.403 278.42C312.603 278.42 310.336 276.126 310.336 273.353Z" fill="#DB0916"/>
<path d="M337.003 279.669C341.789 279.669 345.669 275.789 345.669 271.003C345.669 266.216 341.789 262.336 337.003 262.336C332.216 262.336 328.336 266.216 328.336 271.003C328.336 275.789 332.216 279.669 337.003 279.669Z" fill="#DB0916"/>
<defs>
<filter id="filter0_d_1215_16272" x="34" y="0" width="376" height="376" filterUnits="userSpaceOnUse" color-interpolation-filters="sRGB">
<feFlood flood-opacity="0" result="BackgroundImageFix"/>
<feColorMatrix in="SourceAlpha" type="matrix" values="0 0 0 0 0 0 0 0 0 0 0 0 0 0 0 0 0 0 127 0" result="hardAlpha"/>
<feOffset dy="16"/>
<feGaussianBlur stdDeviation="30"/>
<feComposite in2="hardAlpha" operator="out"/>
<feColorMatrix type="matrix" values="0 0 0 0 0 0 0 0 0 0 0 0 0 0 0 0 0 0 0.1 0"/>
<feBlend mode="normal" in2="BackgroundImageFix" result="effect1_dropShadow_1215_16272"/>
<feBlend mode="normal" in="SourceGraphic" in2="effect1_dropShadow_1215_16272" result="shape"/>
</filter>
<filter id="filter1_d_1215_16272" x="0" y="45" width="188" height="188" filterUnits="userSpaceOnUse" color-interpolation-filters="sRGB">
<feFlood flood-opacity="0" result="BackgroundImageFix"/>
<feColorMatrix in="SourceAlpha" type="matrix" values="0 0 0 0 0 0 0 0 0 0 0 0 0 0 0 0 0 0 127 0" result="hardAlpha"/>
<feOffset dy="16"/>
<feGaussianBlur stdDeviation="30"/>
<feComposite in2="hardAlpha" operator="out"/>
<feColorMatrix type="matrix" values="0 0 0 0 0 0 0 0 0 0 0 0 0 0 0 0 0 0 0.1 0"/>
<feBlend mode="normal" in2="BackgroundImageFix" result="effect1_dropShadow_1215_16272"/>
<feBlend mode="normal" in="SourceGraphic" in2="effect1_dropShadow_1215_16272" result="shape"/>
</filter>
<filter id="filter2_d_1215_16272" x="229" y="179" width="216" height="216" filterUnits="userSpaceOnUse" color-interpolation-filters="sRGB">
<feFlood flood-opacity="0" result="BackgroundImageFix"/>
<feColorMatrix in="SourceAlpha" type="matrix" values="0 0 0 0 0 0 0 0 0 0 0 0 0 0 0 0 0 0 127 0" result="hardAlpha"/>
<feOffset dy="16"/>
<feGaussianBlur stdDeviation="30"/>
<feComposite in2="hardAlpha" operator="out"/>
<feColorMatrix type="matrix" values="0 0 0 0 0 0 0 0 0 0 0 0 0 0 0 0 0 0 0.1 0"/>
<feBlend mode="normal" in2="BackgroundImageFix" result="effect1_dropShadow_1215_16272"/>
<feBlend mode="normal" in="SourceGraphic" in2="effect1_dropShadow_1215_16272" result="shape"/>
</filter>
</defs>
</svg>
