<svg width="445" height="395" viewBox="0 0 445 395" fill="none" xmlns="http://www.w3.org/2000/svg">
<g filter="url(#filter0_d_1215_17956)">
<rect x="94" y="44" width="256" height="256" rx="80" fill="white"/>
</g>
<path opacity="0.3" d="M281.985 151.54C282.135 156.996 281.146 162.424 279.084 167.478C277.021 172.532 273.929 177.101 270.004 180.894C265.527 185.408 260.043 188.793 254.002 190.772C247.961 192.751 241.537 193.266 235.258 192.277C232.513 191.924 229.723 192.23 227.119 193.167C224.515 194.104 222.171 195.647 220.281 197.668L191.525 226.424C189.863 228.09 187.879 229.4 185.694 230.276C183.509 231.152 181.169 231.574 178.816 231.518C176.463 231.462 174.146 230.929 172.006 229.95C169.865 228.971 167.946 227.568 166.364 225.825C163.354 222.368 161.798 217.881 162.021 213.303C162.244 208.725 164.23 204.41 167.562 201.263L195.12 173.706C197.101 171.785 198.616 169.437 199.551 166.842C200.485 164.246 200.814 161.471 200.511 158.729C199.566 152.451 200.103 146.038 202.079 140.005C204.056 133.971 207.417 128.484 211.894 123.983C215.754 120.146 220.335 117.113 225.373 115.056C230.411 113 235.807 111.961 241.248 112.001C242.483 112.036 243.68 112.434 244.689 113.145C245.698 113.857 246.475 114.85 246.923 116.001C247.371 117.152 247.469 118.41 247.205 119.616C246.942 120.823 246.329 121.925 245.442 122.784L228.069 140.157C226.65 141.523 225.709 143.309 225.385 145.252C225.061 147.194 225.372 149.189 226.272 150.941C229.716 157.98 235.408 163.671 242.447 167.116C244.229 167.872 246.19 168.105 248.1 167.787C250.01 167.468 251.789 166.612 253.23 165.319L270.603 147.945C271.374 146.869 272.466 146.063 273.722 145.645C274.978 145.226 276.335 145.215 277.598 145.614C278.861 146.013 279.965 146.801 280.753 147.865C281.541 148.929 281.972 150.216 281.985 151.54Z" fill="#DB0916"/>
<path d="M175.343 218.03C174.776 217.489 174.324 216.838 174.015 216.117C173.706 215.396 173.547 214.62 173.547 213.836C173.547 213.052 173.706 212.276 174.015 211.555C174.324 210.834 174.776 210.184 175.343 209.643L208.292 176.694C208.841 176.134 209.495 175.688 210.217 175.383C210.939 175.077 211.714 174.918 212.498 174.914C213.282 174.91 214.059 175.062 214.784 175.36C215.509 175.658 216.167 176.097 216.722 176.651C217.276 177.205 217.715 177.864 218.013 178.589C218.311 179.314 218.463 180.091 218.459 180.875C218.455 181.659 218.295 182.434 217.99 183.156C217.685 183.878 217.239 184.532 216.679 185.081L183.73 218.03C183.19 218.599 182.54 219.052 181.819 219.362C181.098 219.672 180.321 219.831 179.537 219.831C178.752 219.831 177.976 219.672 177.255 219.362C176.534 219.052 175.883 218.599 175.343 218.03Z" fill="#DB0916"/>
<g filter="url(#filter1_d_1215_17956)">
<rect x="60" y="89" width="68" height="68" rx="34" fill="white"/>
</g>
<path opacity="0.4" d="M106.982 110.031C102.049 105.115 94.0491 105.115 89.1491 110.031C85.6991 113.448 84.6658 118.365 85.9991 122.698L78.1658 130.531C77.6158 131.098 77.2324 132.215 77.3491 133.015L77.8491 136.648C78.0324 137.848 79.1491 138.981 80.3491 139.148L83.9824 139.648C84.7824 139.765 85.8991 139.398 86.4658 138.815L87.8324 137.448C88.1658 137.131 88.1658 136.598 87.8324 136.265L84.5991 133.031C84.1158 132.548 84.1158 131.748 84.5991 131.265C85.0824 130.781 85.8824 130.781 86.3658 131.265L89.6158 134.515C89.9324 134.831 90.4658 134.831 90.7824 134.515L94.3158 130.998C98.6324 132.348 103.549 131.298 106.982 127.881C111.899 122.965 111.899 114.948 106.982 110.031ZM98.1658 122.998C95.8658 122.998 93.9991 121.131 93.9991 118.831C93.9991 116.531 95.8658 114.665 98.1658 114.665C100.466 114.665 102.332 116.531 102.332 118.831C102.332 121.131 100.466 122.998 98.1658 122.998Z" fill="#DB0916"/>
<path d="M98.1667 122.997C100.468 122.997 102.333 121.132 102.333 118.831C102.333 116.53 100.468 114.664 98.1667 114.664C95.8655 114.664 94 116.53 94 118.831C94 121.132 95.8655 122.997 98.1667 122.997Z" fill="#DB0916"/>
<g filter="url(#filter2_d_1215_17956)">
<rect x="289" y="223" width="96" height="96" rx="48" fill="white"/>
</g>
<path opacity="0.4" d="M310.336 273.353V268.66C310.336 265.886 312.603 263.593 315.403 263.593C320.229 263.593 322.203 260.18 319.776 255.993C318.389 253.593 319.216 250.473 321.643 249.086L326.256 246.446C328.363 245.193 331.083 245.94 332.336 248.046L332.629 248.553C335.029 252.74 338.976 252.74 341.403 248.553L341.696 248.046C342.949 245.94 345.669 245.193 347.776 246.446L352.389 249.086C354.816 250.473 355.643 253.593 354.256 255.993C351.829 260.18 353.803 263.593 358.629 263.593C361.403 263.593 363.696 265.86 363.696 268.66V273.353C363.696 276.126 361.429 278.42 358.629 278.42C353.803 278.42 351.829 281.833 354.256 286.02C355.643 288.446 354.816 291.54 352.389 292.926L347.776 295.566C345.669 296.82 342.949 296.073 341.696 293.966L341.403 293.46C339.003 289.273 335.056 289.273 332.629 293.46L332.336 293.966C331.083 296.073 328.363 296.82 326.256 295.566L321.643 292.926C319.216 291.54 318.389 288.42 319.776 286.02C322.203 281.833 320.229 278.42 315.403 278.42C312.603 278.42 310.336 276.126 310.336 273.353Z" fill="#DB0916"/>
<path d="M337.003 279.669C341.789 279.669 345.669 275.789 345.669 271.003C345.669 266.216 341.789 262.336 337.003 262.336C332.216 262.336 328.336 266.216 328.336 271.003C328.336 275.789 332.216 279.669 337.003 279.669Z" fill="#DB0916"/>
<defs>
<filter id="filter0_d_1215_17956" x="34" y="0" width="376" height="376" filterUnits="userSpaceOnUse" color-interpolation-filters="sRGB">
<feFlood flood-opacity="0" result="BackgroundImageFix"/>
<feColorMatrix in="SourceAlpha" type="matrix" values="0 0 0 0 0 0 0 0 0 0 0 0 0 0 0 0 0 0 127 0" result="hardAlpha"/>
<feOffset dy="16"/>
<feGaussianBlur stdDeviation="30"/>
<feComposite in2="hardAlpha" operator="out"/>
<feColorMatrix type="matrix" values="0 0 0 0 0 0 0 0 0 0 0 0 0 0 0 0 0 0 0.1 0"/>
<feBlend mode="normal" in2="BackgroundImageFix" result="effect1_dropShadow_1215_17956"/>
<feBlend mode="normal" in="SourceGraphic" in2="effect1_dropShadow_1215_17956" result="shape"/>
</filter>
<filter id="filter1_d_1215_17956" x="0" y="45" width="188" height="188" filterUnits="userSpaceOnUse" color-interpolation-filters="sRGB">
<feFlood flood-opacity="0" result="BackgroundImageFix"/>
<feColorMatrix in="SourceAlpha" type="matrix" values="0 0 0 0 0 0 0 0 0 0 0 0 0 0 0 0 0 0 127 0" result="hardAlpha"/>
<feOffset dy="16"/>
<feGaussianBlur stdDeviation="30"/>
<feComposite in2="hardAlpha" operator="out"/>
<feColorMatrix type="matrix" values="0 0 0 0 0 0 0 0 0 0 0 0 0 0 0 0 0 0 0.1 0"/>
<feBlend mode="normal" in2="BackgroundImageFix" result="effect1_dropShadow_1215_17956"/>
<feBlend mode="normal" in="SourceGraphic" in2="effect1_dropShadow_1215_17956" result="shape"/>
</filter>
<filter id="filter2_d_1215_17956" x="229" y="179" width="216" height="216" filterUnits="userSpaceOnUse" color-interpolation-filters="sRGB">
<feFlood flood-opacity="0" result="BackgroundImageFix"/>
<feColorMatrix in="SourceAlpha" type="matrix" values="0 0 0 0 0 0 0 0 0 0 0 0 0 0 0 0 0 0 127 0" result="hardAlpha"/>
<feOffset dy="16"/>
<feGaussianBlur stdDeviation="30"/>
<feComposite in2="hardAlpha" operator="out"/>
<feColorMatrix type="matrix" values="0 0 0 0 0 0 0 0 0 0 0 0 0 0 0 0 0 0 0.1 0"/>
<feBlend mode="normal" in2="BackgroundImageFix" result="effect1_dropShadow_1215_17956"/>
<feBlend mode="normal" in="SourceGraphic" in2="effect1_dropShadow_1215_17956" result="shape"/>
</filter>
</defs>
</svg>
