<svg width="450" height="443" viewBox="0 0 450 443" fill="none" xmlns="http://www.w3.org/2000/svg">
<path opacity="0.8" d="M187.822 426.249C76.1889 409.344 -14.5332 303.796 1.94965 186.482C16.0096 86.4321 103.727 8.57263 208.917 1.22002C216.534 0.685463 224.239 0.520983 232.014 0.747143C290.695 2.44256 342.834 25.9143 381.395 61.4326C419.775 96.7801 444.711 144.059 449.252 193.661C461.342 325.63 326.671 447.28 187.824 426.252L187.822 426.249Z" fill="white"/>
<path d="M277.454 334.424C274.026 334.134 266.826 330.482 265.341 328.757C255.461 317.272 235.565 296.969 235.799 280.955C235.838 278.22 247.918 275.147 249.516 272.568C256.742 268.74 259.486 267.859 264.567 260.847C279.57 240.141 241.673 204.183 283.248 189.116C313.701 178.078 340.255 187.563 334.811 139.77C329.368 91.9775 363.518 2.93651 415.619 34.1372C445.52 52.0435 417.832 94.1157 434.11 123.525C449.579 151.47 438.507 175.53 408.91 194.022C379.313 212.513 396.112 224.979 406.136 251.744C418.176 283.893 368.255 291.893 344.892 293.62C326.078 295.01 279.113 311.244 277.45 334.422L277.454 334.424Z" fill="url(#paint0_linear_127_21677)"/>
<mask id="mask0_127_21677" style="mask-type:luminance" maskUnits="userSpaceOnUse" x="235" y="27" width="207" height="308">
<path d="M277.454 334.416C274.026 334.126 266.826 330.474 265.341 328.749C255.461 317.264 235.565 296.962 235.799 280.947C235.838 278.212 247.918 275.139 249.516 272.56C256.742 268.733 259.486 267.852 264.567 260.839C279.57 240.133 241.673 204.175 283.248 189.108C313.701 178.071 340.255 187.555 334.811 139.762C329.368 91.9697 363.518 2.9287 415.619 34.1294C445.52 52.0357 417.832 94.1079 434.11 123.517C449.579 151.463 438.507 175.523 408.91 194.014C379.313 212.505 396.112 224.971 406.136 251.736C418.176 283.885 368.255 291.885 344.892 293.612C326.078 295.002 279.113 311.237 277.45 334.414L277.454 334.416Z" fill="white"/>
</mask>
<g mask="url(#mask0_127_21677)">
<g style="mix-blend-mode:soft-light">
<path d="M251.053 306.218L250.703 305.576C349.698 251.792 406.055 145.103 401.459 20.1831L402.19 20.1562C404.368 79.3598 392.33 136.639 367.38 185.799C341.15 237.483 300.923 279.123 251.051 306.22L251.053 306.218Z" fill="#FCFDFE"/>
<path d="M412.671 264.537C382.997 256.234 334.061 258.138 303.584 268.78L303.344 268.089C333.939 257.404 383.071 255.495 412.869 263.831L412.673 264.535L412.671 264.537Z" fill="#FCFDFE"/>
<path d="M270.366 295.436L269.852 294.914C281.797 283.132 287.328 265.763 286.29 243.29C285.529 226.811 281.319 208.023 273.777 187.447L274.463 187.195C282.031 207.842 286.257 226.704 287.021 243.256C288.069 265.945 282.466 283.502 270.366 295.436Z" fill="#FCFDFE"/>
<path d="M370.657 178.682L370.117 178.189C391.493 154.821 423.956 147.386 447.425 145.266L447.491 145.995C424.151 148.104 391.875 155.489 370.658 178.684L370.657 178.682Z" fill="#FCFDFE"/>
<path d="M394.347 110.171L393.617 110.15C394.621 74.4866 372.78 44.0656 359.672 29.1074L360.222 28.625C373.401 43.6655 395.359 74.2589 394.349 110.173L394.347 110.171Z" fill="#FCFDFE"/>
</g>
</g>
<path d="M311.926 377.533C308.424 379.364 299.195 380.264 296.691 379.507C280.033 374.465 248.232 367.051 238.587 351.384C236.939 348.708 246.754 338.284 246.713 334.798C251.358 326.633 253.475 324.088 254.076 314.157C255.854 284.837 196.952 273.346 227.963 233.11C250.678 203.637 282.264 196.46 247.524 153.49C212.784 110.519 190.993 3.15618 260.731 1.28046C300.754 0.203433 299.852 58.0547 333.762 76.5256C365.985 94.0776 370.086 124.225 352.796 160.396C335.507 196.566 359.477 198.293 385.692 218.058C417.184 241.799 373.726 280.33 352.145 296.406C334.767 309.353 299.248 354.044 311.926 377.535V377.533Z" fill="url(#paint1_linear_127_21677)"/>
<mask id="mask1_127_21677" style="mask-type:luminance" maskUnits="userSpaceOnUse" x="214" y="1" width="183" height="379">
<path d="M311.934 377.533C308.432 379.364 299.202 380.264 296.699 379.507C280.04 374.465 248.24 367.051 238.594 351.384C236.946 348.708 246.762 338.284 246.72 334.798C251.365 326.633 253.483 324.088 254.084 314.157C255.862 284.837 196.96 273.346 227.971 233.11C250.685 203.637 282.272 196.46 247.532 153.49C212.792 110.519 191.001 3.15618 260.739 1.28046C300.762 0.203433 299.86 58.0547 333.77 76.5256C365.993 94.0776 370.093 124.225 352.804 160.396C335.515 196.566 359.484 198.293 385.7 218.058C417.192 241.799 373.734 280.33 352.152 296.406C334.774 309.353 299.256 354.044 311.934 377.535V377.533Z" fill="white"/>
</mask>
<g mask="url(#mask1_127_21677)">
<g style="mix-blend-mode:soft-light">
<path d="M268.944 366.463L268.211 366.055C331.011 252.892 319.865 114.731 238.398 -3.52237L239.091 -4C277.701 52.0452 301.346 114.986 307.468 178.022C313.905 244.291 300.583 309.453 268.946 366.464L268.944 366.463Z" fill="#FCFDFE"/>
<path d="M399.909 226.421C366.026 236.667 319.764 268.681 296.785 297.785L296.125 297.264C319.195 268.047 365.642 235.905 399.666 225.617L399.909 226.422V226.421Z" fill="#FCFDFE"/>
<path d="M281.02 344.109L280.2 343.921C284.516 325.136 279.169 304.889 264.308 283.747C253.411 268.243 237.747 252.627 217.75 237.331L218.261 236.664C238.324 252.011 254.048 267.689 264.994 283.263C279.998 304.61 285.389 325.082 281.018 344.109H281.02Z" fill="#FCFDFE"/>
<path d="M306.249 169.108L305.422 168.963C311.735 133.135 338.62 105.916 360.06 89.3906L360.572 90.0565C339.25 106.49 312.515 133.546 306.247 169.108H306.249Z" fill="#FCFDFE"/>
<path d="M286.978 88.0844L286.257 88.5146C265.245 53.3268 225.319 37.3042 203.391 30.8847L203.626 30.0781C225.673 36.5324 265.819 52.6499 286.978 88.0844Z" fill="#FCFDFE"/>
</g>
</g>
<path d="M22.5098 349.849C14.3538 350.335 7.67969 345.045 7.67969 338.051V86.0098C7.67969 79.0162 14.3522 73.6168 22.5098 73.9695L23.647 74.0185L399.726 101.629C405.713 101.888 410.562 95.6208 410.562 101.569V315.928C410.562 321.877 405.713 327.004 399.726 327.361L24.4535 347.477L23.2626 349.803L22.5114 349.848L22.5098 349.849Z" fill="#BFC8D6"/>
<path d="M25.9005 349.849C17.7444 350.335 11.0703 345.045 11.0703 338.051V86.0098C11.0703 79.0162 17.7428 73.6168 25.9005 73.9695L403.116 90.3131C409.104 90.5725 413.953 95.6208 413.953 101.569V315.928C413.953 321.877 409.104 327.004 403.116 327.361L25.9005 349.849Z" fill="white"/>
<g style="mix-blend-mode:multiply" opacity="0.3">
<path d="M403.113 95.3541L25.8983 79.836C21.538 79.6573 17.9922 82.5373 17.9922 86.2713V337.666C17.9922 341.4 21.538 344.223 25.8983 343.973L403.114 322.312C406.325 322.127 408.92 319.393 408.92 316.201V101.37C408.92 98.1788 406.325 95.4854 403.114 95.3541H403.113Z" fill="#D8DEE8"/>
</g>
<path d="M25.9012 322.57C24.2042 322.654 22.8203 321.54 22.8203 320.089V86.4675C22.8203 85.0157 24.2026 83.888 25.9012 83.956L403.117 98.8953C404.37 98.9443 405.386 99.9992 405.386 101.244V301.554C405.386 302.799 404.37 303.863 403.117 303.925L25.9012 322.573V322.57Z" fill="#D8DEE8"/>
<g style="mix-blend-mode:soft-light">
<path d="M46.8438 303.506L137.637 299.717V252.117L46.8438 254.319V303.506Z" fill="#F4F7FA"/>
</g>
<g style="mix-blend-mode:soft-light">
<g opacity="0.7">
<path d="M290.062 221.545L303.857 221.353V187.425L290.062 187.07V221.545Z" fill="#F4F7FA"/>
<path d="M265.172 221.891L279.233 221.697V170.785L265.172 170.703V221.891Z" fill="#F4F7FA"/>
<path d="M239.789 222.241L254.126 222.044V144.624L239.789 144.203V222.241Z" fill="#F4F7FA"/>
<path d="M213.906 222.598L228.528 222.395V164.077L213.906 163.742V222.598Z" fill="#F4F7FA"/>
<path d="M187.516 222.965L202.428 222.759V196.547L187.516 196.605V222.965Z" fill="#F4F7FA"/>
<path d="M160.586 223.338L175.799 223.128V160.9L160.586 160.758V223.338Z" fill="#F4F7FA"/>
<path d="M133.109 223.713L148.634 223.498V132.905L133.109 132.602V223.713Z" fill="#F4F7FA"/>
<path d="M105.062 224.094L120.906 223.876V157.135L105.062 156.969V224.094Z" fill="#F4F7FA"/>
<path d="M76.4453 224.493L92.6198 224.27V119.677L76.4453 119.289V224.493Z" fill="#F4F7FA"/>
<path d="M47.2188 224.899L63.7332 224.672V107.201L47.2188 106.734V224.899Z" fill="#F4F7FA"/>
</g>
</g>
<g style="mix-blend-mode:soft-light">
<path d="M316.531 292.253L384.384 289.42V282.555L316.531 285.197V292.253Z" fill="#F4F7FA"/>
</g>
<g style="mix-blend-mode:soft-light">
<path d="M316.531 201.192L384.384 200.789V193.922L316.531 194.137V201.192Z" fill="#F4F7FA"/>
</g>
<g style="mix-blend-mode:soft-light">
<path d="M316.531 189.102L384.384 189.02V182.154L316.531 182.047V189.102Z" fill="#F4F7FA"/>
</g>
<g style="mix-blend-mode:soft-light">
<path d="M316.531 282.504L327.589 282.085V271.266L316.531 271.637V282.504Z" fill="#F4F7FA"/>
</g>
<g style="mix-blend-mode:soft-light">
<path d="M71.7784 273.547C77.5463 273.764 78.4019 270.425 84.0812 270.101C93.7128 269.552 96.0709 278.926 105.351 278.784C112.927 278.667 114.833 272.339 122.334 273.039C127.909 273.561 129.007 277.272 134.442 277.805C135.527 277.911 136.595 277.869 137.637 277.718V299.72L46.8438 303.508V264.578C51.7102 264.929 55.2639 266.03 57.807 267.145C63.9276 269.827 65.9599 273.327 71.7784 273.545V273.547Z" fill="#F4F7FA"/>
</g>
<g style="mix-blend-mode:soft-light">
<path d="M47.2266 248.92L303.868 243.189V232.43L47.2266 237.083V248.92Z" fill="#F4F7FA"/>
</g>
<g style="mix-blend-mode:soft-light">
<path d="M148.633 299.261L303.86 292.785V247.352L148.633 251.071V299.261Z" fill="#F4F7FA"/>
</g>
<path d="M367.879 163.001C378.076 152.805 378.076 136.273 367.879 126.077C357.683 115.88 341.151 115.88 330.955 126.077C320.758 136.273 320.758 152.805 330.955 163.001C341.151 173.198 357.683 173.198 367.879 163.001Z" fill="#F4F7FA"/>
<mask id="mask2_127_21677" style="mask-type:luminance" maskUnits="userSpaceOnUse" x="323" y="118" width="53" height="53">
<path d="M367.879 162.986C378.076 152.789 378.076 136.258 367.879 126.061C357.683 115.865 341.151 115.865 330.955 126.061C320.758 136.258 320.758 152.789 330.955 162.986C341.151 173.182 357.683 173.182 367.879 162.986Z" fill="white"/>
</mask>
<g mask="url(#mask2_127_21677)">
<g opacity="0.74">
<path d="M356.585 144.096C360.56 140.121 360.56 133.676 356.585 129.701C352.61 125.726 346.165 125.726 342.19 129.701C338.215 133.676 338.215 140.121 342.19 144.096C346.165 148.071 352.61 148.071 356.585 144.096Z" fill="url(#paint2_linear_127_21677)"/>
<path d="M329.898 170.879C329.898 160.423 338.638 151.359 349.418 151.359C360.198 151.359 368.937 160.423 368.937 170.879H329.898Z" fill="url(#paint3_linear_127_21677)"/>
</g>
</g>
<path d="M135.211 407.466C135.211 407.466 146.603 413.254 146.788 414.178C146.975 415.101 139.462 413.868 136.396 414.001C133.329 414.133 130.807 413.121 131.083 411.668C131.362 410.216 132.434 406.562 132.434 406.562L135.21 407.464L135.211 407.466Z" fill="#300205"/>
<path d="M135.631 402.764L134.938 408.499C134.938 408.499 133.135 409.217 131.923 408.368L131.406 402.078L135.631 402.764Z" fill="url(#paint4_linear_127_21677)"/>
<path d="M81.9772 402.906L80.6519 405.285C80.2818 405.949 80.1711 406.751 80.3482 407.509C80.8116 409.487 81.7368 413.341 82.1401 414.346C82.6889 415.715 90.0621 416.528 90.0621 416.528C90.0621 416.528 90.72 415.494 89.1891 414.244C87.6581 412.995 86.6744 412.799 86.1351 410.955C85.5958 409.111 85.2352 403.896 85.2352 403.896L81.9788 402.906H81.9772Z" fill="#4B1215"/>
<path d="M87.497 396.857C87.0131 397.288 84.6455 405.323 84.6455 405.323C84.6455 405.323 83.8784 406.419 82.4234 404.801C80.9684 403.183 81.7639 404.075 81.7639 404.075L82.0375 396.172L87.497 396.855V396.857Z" fill="url(#paint5_linear_127_21677)"/>
<path d="M141.9 287.554C142.501 304.66 142.524 323.244 141.645 343.099C140.653 365.456 138.662 386.12 136.152 404.852C135.219 404.885 134.239 404.892 133.214 404.858C132.523 404.836 131.852 404.8 131.204 404.749C129.9 400.865 128.362 395.757 126.982 389.657C125.532 383.242 124.659 377.487 124.036 371.984C121.842 352.609 124.412 350.92 122.633 336.561C121.056 323.844 118.814 323.347 116.182 305.292C113.326 285.702 115.451 282.763 116.486 281.702C120.887 277.182 131.226 280.26 141.9 287.555V287.554Z" fill="url(#paint6_linear_127_21677)"/>
<g style="mix-blend-mode:multiply" opacity="0.3">
<path d="M116.486 281.707C120.683 277.396 130.285 280.006 140.424 286.586C128.758 300.678 127.487 309.819 128.885 315.75C130.465 322.454 135.271 324.384 135.252 331.714C135.23 340.723 127.958 343.108 128.113 352.64C128.216 358.942 131.411 358.877 132.165 366.662C133.057 375.873 128.883 379.047 130.236 385.862C130.818 388.794 132.477 392.624 137.205 396.572C136.865 399.371 136.514 402.14 136.151 404.859C135.217 404.892 134.237 404.897 133.214 404.865C132.523 404.845 131.852 404.807 131.204 404.756C129.9 400.872 128.362 395.765 126.982 389.664C125.532 383.249 124.659 377.494 124.036 371.991C121.842 352.616 124.412 350.927 122.633 336.568C121.056 323.851 118.814 323.354 116.182 305.299C113.326 285.709 115.451 282.77 116.486 281.709V281.707Z" fill="url(#paint7_linear_127_21677)"/>
</g>
<path d="M134.664 287.266C124.62 303.698 113.786 324.147 104.098 348.625C96.7767 367.123 91.4659 384.491 87.5674 399.97C87.0391 400.243 85.796 400.788 84.205 400.553C82.0367 400.232 80.7367 398.684 80.3966 398.252C78.8103 387.156 78.9843 377.759 79.5236 370.977C79.8684 366.634 80.4789 359.403 82.954 350.475C85.7264 340.475 87.6338 339.914 91.2508 329.333C95.0054 318.353 94.096 315.612 97.6924 301.87C99.1696 296.224 101.642 287.823 105.722 277.773C115.369 280.938 125.017 284.101 134.664 287.266Z" fill="url(#paint8_linear_127_21677)"/>
<path d="M137.343 215.875C148.433 208.632 153.186 209.467 156.401 202.962C159.581 196.527 159.573 186.318 154.312 180.909C153.926 180.512 149.916 176.52 144.492 177.203C136.287 178.238 135.683 188.603 126.481 193.351C118.684 197.374 110.18 194.545 104.425 192.63C90.5675 188.018 88.5099 179.294 81.3249 180.684C72.3212 182.427 71.5257 196.903 62.5551 197.795C56.5595 198.391 55.1314 192.102 47.2505 190.37C37.989 188.334 27.8276 194.352 22.1293 201.668C11.7132 215.044 14.4556 235.006 20.9748 247.192C26.3299 257.203 37.8419 268.718 47.54 266.24C55.2025 264.283 57.6966 254.625 64.2885 255.585C68.9746 256.268 69.1439 261.359 74.684 263.98C83.7811 268.283 95.01 260.081 98.0735 257.845C106.805 251.47 105.413 247.391 116.672 234.609C121.12 229.56 127.523 222.289 137.345 215.874L137.343 215.875Z" fill="url(#paint9_linear_127_21677)"/>
<path d="M216.773 187.698C216.773 187.698 218.648 185.075 219.837 183.127C221.026 181.178 226.577 175.703 226.577 175.703C226.577 175.703 227 176.571 225.806 177.962C224.61 179.352 222.095 181.735 222.674 182.743C223.253 183.75 224.88 184.639 223.705 186.543C222.53 188.446 220.487 187.147 219.443 188.673C218.399 190.2 217.329 191.865 217.329 191.865L216.773 187.698Z" fill="url(#paint10_linear_127_21677)"/>
<path d="M216.041 185.992C217.305 188.13 218.57 190.269 219.834 192.407C218.518 196.706 216.25 202.674 212.276 208.972C210.523 211.749 205.087 219.899 195.884 226.453C183.357 235.373 160.535 243.696 153.855 234.204C147.894 225.733 157.516 206.957 159.287 203.587C162.874 205.467 168.767 207.96 176.341 208.55C178.824 208.743 185.285 209.184 192.565 206.684C206.038 202.056 213.517 190.378 216.041 185.994V185.992Z" fill="url(#paint11_linear_127_21677)"/>
<path d="M173.914 214.65C173.283 217.818 163.432 216.119 161.398 221.868C160.307 224.954 162.624 226.913 162.72 232.153C162.829 238.019 160.033 241.351 157.888 245.965C154.747 252.724 154.735 259.349 154.713 272.6C154.679 291.463 158.85 295.255 155.29 301.335C150.656 309.247 139.528 309.753 136.52 309.889C126.234 310.356 125.014 304.892 113.852 304.24C101.105 303.495 99.289 310.424 90.173 307.468C81.8446 304.768 79.0437 297.588 72.5594 299.075C68.5059 300.003 67.432 303.307 63.6078 302.949C59.7647 302.59 55.7934 298.782 55.523 294.877C55.1861 290.023 60.4922 283.911 68.8064 283.9C72.1102 285.197 77.5871 286.699 83.6776 285.031C93.6572 282.294 98.8478 272.807 104.613 262.269C108.601 254.98 115.932 241.581 116.019 224.011C116.055 216.766 114.829 214.647 116.596 210.774C122.331 198.199 144.58 200.075 146.465 200.257C161.626 201.718 174.677 210.823 173.916 214.649L173.914 214.65Z" fill="url(#paint12_linear_127_21677)"/>
<path d="M178.881 230.477L150.935 231.696C150.628 231.709 150.36 231.93 150.255 232.253L137.09 273.087C136.902 273.672 137.494 275.138 138.047 275.071L165.677 270.869C165.958 270.836 166.199 270.629 166.3 270.333L179.996 232.219C180.191 231.655 179.422 230.454 178.881 230.478V230.477Z" fill="#D7111E"/>
<path d="M179.313 231.477L151.367 232.697C151.06 232.709 150.791 232.931 150.687 233.253L137.522 274.087C137.334 274.672 137.758 275.278 138.311 275.212L166.108 271.87C166.39 271.837 166.63 271.629 166.731 271.334L180.046 232.622C180.241 232.058 179.855 231.454 179.314 231.477H179.313Z" fill="#430004"/>
<path d="M171.674 232.993L172.751 229.739C172.847 229.444 172.654 229.133 172.373 229.133H162.2C162.025 229.133 161.87 229.259 161.816 229.446L160.793 233.047C160.709 233.343 160.911 233.643 161.188 233.634L171.307 233.289C171.471 233.283 171.615 233.167 171.672 232.995L171.674 232.993Z" fill="url(#paint13_linear_127_21677)"/>
<g style="mix-blend-mode:multiply" opacity="0.3">
<path d="M154.465 265.325C156.28 258.745 153.293 254.459 156.342 249.344C160.655 242.11 169.921 245.172 172.801 239.334C173.578 237.761 173.949 235.415 172.902 231.756L179.311 231.477C179.852 231.454 180.238 232.056 180.043 232.622L166.728 271.334C166.627 271.629 166.387 271.835 166.105 271.87L149.211 273.902C152.221 270.968 153.726 268.003 154.465 265.327V265.325Z" fill="#D7111E"/>
</g>
<path d="M134.055 260.431C134.055 260.431 138.277 259.492 139.906 258.345C141.535 257.198 143.262 255.356 145.663 255.457C148.064 255.558 150.481 256.923 149.372 257.236C148.263 257.55 146.19 260.009 144.608 260.978C143.025 261.946 139.408 262.035 138.734 261.981C138.061 261.929 135.402 263.716 135.402 263.716L134.056 260.429L134.055 260.431Z" fill="url(#paint14_linear_127_21677)"/>
<g style="mix-blend-mode:multiply" opacity="0.3">
<path d="M68.8001 283.901C72.104 285.198 77.5809 286.701 83.6714 285.032C93.6509 282.296 98.8416 272.809 104.606 262.271C108.595 254.981 115.925 241.582 116.012 224.013C116.049 216.768 114.823 214.649 116.59 210.776C116.871 210.16 117.202 209.588 117.558 209.039C121.915 212.332 123.604 215.629 124.097 218.524C125.299 225.571 119.633 231.333 122.581 237.41C125.405 243.232 132.386 241.622 133.843 246.612C135.413 251.995 127.686 255.242 127.346 263.561C126.936 273.546 137.673 278.434 135.791 285.111C134.161 290.898 125.174 290.482 125.179 293.587C125.184 297.278 124.901 289.657 135.791 285.111C139.092 283.734 154.624 295.198 156.511 293.187C156.917 296.44 156.845 298.668 155.282 301.335C150.648 309.247 139.52 309.753 136.512 309.889C126.226 310.356 125.007 304.892 113.844 304.24C101.097 303.495 99.2812 310.424 90.1652 307.468C81.8368 304.768 79.0359 297.588 72.5515 299.075C68.4981 300.003 67.4242 303.307 63.6 302.95C59.7569 302.591 55.7856 298.782 55.5152 294.877C55.1783 290.024 60.4844 283.911 68.7985 283.9L68.8001 283.901Z" fill="url(#paint15_linear_127_21677)"/>
</g>
<path d="M134.168 258.476C135.468 261.059 136.766 263.642 138.066 266.224C136.063 267.322 114.645 278.652 99.1209 267.436C97.201 266.049 92.1005 262.364 89.3502 255.146C86.3199 247.19 88.0201 239.793 89.1224 234.989C91.8522 223.097 99.5733 210.622 110.527 205.61C114.712 203.695 119.679 202.727 124.351 201.816C128.313 201.042 134.541 200.097 134.674 200.767C134.739 201.095 133.292 201.512 132.288 202.148C126.115 206.051 133.951 222.173 126.698 229.904C119.749 237.31 110.731 236.088 109.278 242.798C108.602 245.919 110 248.726 110.624 249.977C114.1 256.955 123.459 260.078 134.17 258.476H134.168Z" fill="url(#paint16_linear_127_21677)"/>
<path d="M148.699 188.664C148.699 188.664 146.184 196.839 143.051 198.114C139.918 199.387 134.966 200.847 134.344 201.414C133.723 201.979 150.989 208.248 160.669 205.364C157.911 204.015 157.172 203.583 157.172 203.583C156.435 203.151 155.061 202.349 153.774 201.073C152.896 200.205 151.523 198.588 150.489 195.901L151.394 191.259L148.7 188.666L148.699 188.664Z" fill="url(#paint17_linear_127_21677)"/>
<path d="M147.577 192.228C147.577 192.228 149.035 195.851 152.492 195.295C155.589 194.796 155.43 186.09 153.327 184.608C152.626 184.115 151.203 183.926 150.147 184.358C149.403 184.662 147.192 186.686 147.686 189.653C147.004 189.247 146.324 189.312 146.088 189.675C145.789 190.137 146.273 190.977 146.384 191.167C146.765 191.826 147.319 192.116 147.578 192.228H147.577Z" fill="url(#paint18_linear_127_21677)"/>
<g style="mix-blend-mode:multiply" opacity="0.3">
<path d="M218.198 224.797C218.198 224.797 208.419 237.772 208.168 257.634L204.336 339.827H220.398L218.198 224.797Z" fill="#BFC8D6"/>
</g>
<path d="M413.391 222.08L403.862 221.902L395.137 221.743L372.837 221.327L363.922 221.162L348.841 220.882L339.751 220.716L291.457 219.816L281.927 219.639L234.449 218.762L230.206 218.682C222.118 218.534 215.328 224.371 215.328 231.718V375.306C215.328 382.652 222.096 388.278 230.188 387.879L234.59 387.656V388.246H234.596L234.795 387.629L300.46 383.53L413.263 376.69C420.171 376.353 426.102 372.837 426.102 366.1V234.496C426.102 227.765 420.303 222.203 413.388 222.076L413.391 222.08ZM381.058 229.049C381.743 229.061 382.409 229.129 383.059 229.255C386.57 229.91 389.51 232.116 391.084 235.097C391.881 236.597 392.331 238.289 392.331 240.084C392.331 242.039 391.795 243.869 390.854 245.447C389.236 248.183 386.404 250.16 383.051 250.713C382.407 250.821 381.74 250.88 381.057 250.873C374.781 250.834 369.674 245.898 369.674 239.839C369.674 233.78 374.781 228.953 381.057 229.049H381.058ZM325.141 228.189C325.853 228.2 326.555 228.268 327.233 228.395C330.882 229.062 333.942 231.291 335.606 234.3C336.473 235.856 336.957 237.623 336.957 239.486C336.957 241.458 336.41 243.31 335.453 244.906C333.761 247.75 330.768 249.803 327.222 250.372C326.55 250.479 325.854 250.538 325.143 250.532C318.571 250.492 313.213 245.436 313.213 239.235C313.213 233.033 318.571 228.086 325.143 228.189H325.141ZM266.504 227.289C267.257 227.3 267.997 227.375 268.71 227.506C272.569 228.195 275.8 230.516 277.527 233.639C278.405 235.213 278.901 236.99 278.901 238.866C278.901 240.917 278.315 242.844 277.271 244.498C275.493 247.359 272.387 249.428 268.71 250.01C267.998 250.13 267.257 250.187 266.504 250.181C259.607 250.135 253.981 244.954 253.981 238.599C253.981 232.244 259.607 227.183 266.504 227.291V227.289Z" fill="#EF1A1A"/>
<path d="M417.094 222.149L403.747 221.897L395.077 221.737L372.806 221.328L363.903 221.157L348.828 220.877L339.744 220.711L291.451 219.811L281.922 219.634L257.431 219.179L247.633 218.997L234.974 218.763C234.797 218.756 234.622 218.756 234.444 218.763C231.275 218.797 228.324 219.715 225.969 221.333C225.952 221.344 225.936 221.355 225.918 221.367C222.83 223.51 220.709 226.726 220.339 230.458C220.316 230.714 220.022 230.977 220.01 231.239C220.003 231.371 219.727 231.502 219.727 231.633V264.651L251.237 263.773L425.539 258.866L429.401 258.763V234.402C429.401 227.682 423.98 222.274 417.094 222.149ZM396.284 240.131C396.284 240.798 396.221 241.447 396.096 242.081C395.15 247.131 390.573 250.933 385.044 250.898C384.365 250.892 383.7 250.835 383.05 250.716C377.743 249.781 373.696 245.279 373.696 239.887C373.696 234.496 377.743 230.079 383.054 229.258C383.698 229.15 384.365 229.104 385.044 229.115C388.144 229.161 390.954 230.409 392.983 232.399C395.023 234.393 396.284 237.129 396.284 240.132V240.131ZM341.094 239.538C341.094 240.181 341.037 240.809 340.923 241.418C339.978 246.645 335.149 250.594 329.32 250.561C328.602 250.555 327.901 250.493 327.216 250.373C323.164 249.661 319.813 247.022 318.303 243.499C317.738 242.199 317.425 240.774 317.425 239.282C317.425 236.876 318.235 234.659 319.603 232.859C321.376 230.521 324.094 228.875 327.229 228.396C327.907 228.293 328.608 228.242 329.321 228.253C332.537 228.304 335.443 229.558 337.563 231.548C339.745 233.594 341.096 236.427 341.096 239.539L341.094 239.538ZM283.238 238.918C283.238 239.618 283.17 240.308 283.033 240.969C281.989 246.258 276.956 250.237 270.886 250.202C270.14 250.196 269.411 250.134 268.704 250.008C262.862 249.027 258.405 244.303 258.405 238.649C258.405 232.995 262.862 228.361 268.704 227.507C269.411 227.393 270.14 227.347 270.886 227.358C274.295 227.409 277.372 228.72 279.607 230.806C281.853 232.892 283.238 235.764 283.238 238.916V238.918Z" fill="url(#paint19_linear_127_21677)"/>
<path d="M429.401 257.809V365.965C429.401 366.598 429.371 367.219 429.273 367.828C428.367 373.71 423.244 378.435 416.999 378.738L300.532 384.437L234.791 387.95L234.678 388.254H234.587C227.302 388.254 221.161 383.653 220.157 377.327C220.054 376.694 219.727 375.747 219.727 375.086V257.156L249.316 257.248L425.538 257.802L429.4 257.813L429.401 257.809Z" fill="white"/>
<path d="M356.949 276.646C356.949 275.034 355.741 273.736 354.049 273.742L336.082 273.817C334.363 273.823 332.219 275.159 332.219 276.787V293.211C332.219 294.838 334.446 296.126 336.165 296.104L353.634 295.874C355.327 295.852 356.948 294.521 356.948 292.909V276.644L356.949 276.646Z" fill="#BFC8D6"/>
<path d="M388.154 276.489C388.154 274.898 386.772 273.619 385.124 273.625L368.434 273.693C366.759 273.699 365.484 275.014 365.484 276.619V292.825C365.484 294.43 366.737 295.71 368.412 295.689L385.176 295.468C386.824 295.447 388.154 294.134 388.154 292.545V276.492V276.489Z" fill="#BFC8D6"/>
<path d="M419.146 276.343C419.146 274.775 417.723 273.509 416.116 273.516L399.681 273.569C398.05 273.576 396.625 274.858 396.625 276.443V292.434C396.625 294.019 397.988 295.294 399.619 295.271L416.095 295.063C417.701 295.042 419.146 293.753 419.146 292.184V276.343Z" fill="#BFC8D6"/>
<path d="M356.949 306.391C356.949 304.78 355.741 303.497 354.049 303.524L336.082 303.816C334.363 303.843 332.219 305.2 332.219 306.828V323.252C332.219 324.879 334.446 326.146 336.165 326.102L353.634 325.658C355.327 325.615 356.948 324.266 356.948 322.654V306.39L356.949 306.391Z" fill="#BFC8D6"/>
<path d="M388.154 305.852C388.154 304.261 386.772 302.997 385.124 303.024L368.434 303.299C366.759 303.326 365.484 304.654 365.484 306.26V322.466C365.484 324.071 366.737 325.335 368.412 325.294L385.176 324.865C386.824 324.824 388.154 323.497 388.154 321.906V305.853V305.852Z" fill="url(#paint20_linear_127_21677)"/>
<path d="M419.146 305.315C419.146 303.746 417.723 302.497 416.116 302.524L399.681 302.78C398.05 302.807 396.625 304.105 396.625 305.69V321.681C396.625 323.266 397.988 324.523 399.619 324.482L416.095 324.069C417.701 324.028 419.146 322.725 419.146 321.156V305.315Z" fill="#BFC8D6"/>
<path d="M258.215 308.116C258.215 306.438 256.599 305.095 254.763 305.125L236.208 305.412C234.342 305.442 232.961 306.826 232.961 308.521V325.635C232.961 327.33 234.274 328.679 236.141 328.632L254.862 328.169C256.698 328.123 258.213 326.734 258.213 325.056V308.118L258.215 308.116Z" fill="#BFC8D6"/>
<path d="M291.996 307.514C291.996 305.858 290.694 304.542 288.907 304.571L270.469 304.867C268.654 304.895 266.922 306.279 266.922 307.951V324.827C266.922 326.499 268.728 327.813 270.544 327.767L288.742 327.304C290.53 327.258 291.996 325.877 291.996 324.223V307.514Z" fill="#BFC8D6"/>
<path d="M324.587 306.984C324.587 305.35 323.267 304.034 321.529 304.063L303.361 304.348C301.595 304.376 299.688 305.736 299.688 307.386V324.036C299.688 325.686 301.639 326.978 303.406 326.932L321.271 326.494C323.011 326.45 324.587 325.101 324.587 323.468V306.984Z" fill="#BFC8D6"/>
<path d="M356.949 336.137C356.949 334.525 355.741 333.257 354.049 333.306L336.082 333.815C334.363 333.864 332.219 335.24 332.219 336.868V353.292C332.219 354.919 334.446 356.166 336.165 356.101L353.634 355.441C355.327 355.377 356.948 354.012 356.948 352.402V336.137H356.949Z" fill="#BFC8D6"/>
<path d="M388.154 335.216C388.154 333.625 386.772 332.376 385.124 332.423L368.434 332.906C366.759 332.953 365.484 334.297 365.484 335.903V352.109C365.484 353.714 366.737 354.963 368.412 354.9L385.176 354.264C386.824 354.201 388.154 352.861 388.154 351.27V335.218V335.216Z" fill="#BFC8D6"/>
<path d="M258.215 339.106C258.215 337.428 256.599 336.106 254.763 336.158L236.208 336.676C234.342 336.73 232.961 338.132 232.961 339.827V356.941C232.961 358.636 234.274 359.968 236.141 359.897L254.862 359.198C256.698 359.128 258.213 357.721 258.213 356.043V339.104L258.215 339.106Z" fill="#BFC8D6"/>
<path d="M291.996 338.071C291.996 336.415 290.694 335.115 288.907 335.165L270.469 335.691C268.654 335.743 266.922 337.144 266.922 338.817V355.694C266.922 357.366 268.728 358.659 270.544 358.591L288.742 357.902C290.53 357.834 291.996 356.436 291.996 354.781V338.072V338.071Z" fill="#BFC8D6"/>
<path d="M324.587 337.134C324.587 335.501 323.267 334.202 321.529 334.251L303.361 334.759C301.595 334.81 299.688 336.19 299.688 337.84V354.49C299.688 356.14 301.639 357.411 303.406 357.343L321.271 356.684C323.011 356.618 324.587 355.251 324.587 353.619V337.134Z" fill="#BFC8D6"/>
<path d="M269.736 196.696C258.166 196.374 248.569 205.693 247.641 219.006L257.437 219.188C258.235 211.236 263.554 205.247 269.736 205.397C276.409 205.559 282.019 212.929 282.019 221.534C282.019 230.139 276.409 237.325 269.736 237.249C266.257 237.21 263.053 235.187 260.771 232.045C259.447 233.838 257.165 237.949 259.325 242.921C262.438 244.817 265.983 245.905 269.736 245.935C281.796 246.03 291.521 235.178 291.521 221.703C291.521 208.228 281.796 197.029 269.736 196.694V196.696Z" fill="white"/>
<path d="M328.119 198.289C317.088 197.982 307.94 207.087 307.055 220.084L316.394 220.258C317.154 212.493 322.225 206.642 328.121 206.786C334.483 206.941 339.834 214.136 339.834 222.539C339.834 230.941 334.483 237.962 328.121 237.891C324.804 237.853 321.749 235.879 319.571 232.811C318.309 234.563 316.133 238.575 318.194 243.431C321.162 245.281 324.542 246.344 328.121 246.372C339.622 246.463 348.898 235.862 348.898 222.701C348.898 209.541 339.622 198.61 328.121 198.29L328.119 198.289Z" fill="white"/>
<path d="M384.001 199.874C373.481 199.582 364.759 208.478 363.914 221.168L372.818 221.334C373.544 213.752 378.379 208.037 384.001 208.173C390.071 208.32 395.173 215.343 395.173 223.551C395.173 231.76 390.07 238.617 384.001 238.549C380.838 238.513 377.923 236.587 375.848 233.591C374.645 235.302 372.57 239.221 374.534 243.963C377.364 245.769 380.588 246.807 384.001 246.833C394.971 246.919 403.821 236.563 403.821 223.708C403.821 210.853 394.972 200.181 384.001 199.876V199.874Z" fill="white"/>
<g style="mix-blend-mode:multiply" opacity="0.3">
<path d="M429.414 365.428V365.964C429.414 366.597 429.384 367.219 429.286 367.828C428.397 373.709 423.355 378.435 417.113 378.737L300.544 384.437C300.51 384.089 300.488 383.736 300.466 383.388C300.363 381.952 300.319 380.504 300.313 379.045C300.295 371.414 301.578 364.101 303.938 357.336C306.98 348.604 311.82 340.778 317.986 334.36C322.176 330 326.97 326.283 332.236 323.378C338.129 320.112 344.604 317.855 351.461 316.824C353.268 316.551 355.104 316.362 356.962 316.266C357.936 316.209 358.917 316.181 359.902 316.181C360.369 316.174 363.162 316.203 365.488 316.226C367.038 316.249 368.371 316.266 368.68 316.277C370.801 316.356 372.863 316.557 374.87 316.859C379.458 317.15 383.91 317.988 388.161 319.31C391.176 320.245 394.095 321.419 396.887 322.828C397.935 323.347 398.966 323.9 399.975 324.487C411.294 331.03 420.374 341.311 425.702 353.749C426.54 355.692 427.266 357.687 427.91 359.727C428.497 361.59 429.411 363.494 429.411 365.431L429.414 365.428Z" fill="#BFC8D6"/>
</g>
<path d="M429.212 378.757C429.288 412.871 411.156 440.709 378.862 441.625C378.362 441.639 370.122 441.625 369.62 441.625C336.632 441.705 309.828 413.688 309.75 379.048C309.674 344.407 336.353 316.26 369.343 316.18C370.115 316.178 377.355 316.249 378.12 316.278C410.044 317.472 429.138 344.926 429.212 378.757Z" fill="url(#paint21_linear_127_21677)"/>
<path d="M380.644 442.187C413.632 442.187 440.374 414.105 440.374 379.465C440.374 344.824 413.632 316.742 380.644 316.742C347.656 316.742 320.914 344.824 320.914 379.465C320.914 414.105 347.656 442.187 380.644 442.187Z" fill="#FF4672"/>
<g style="mix-blend-mode:multiply" opacity="0.3">
<path d="M380.648 440.613C412.805 440.613 438.874 413.239 438.874 379.471C438.874 345.703 412.805 318.328 380.648 318.328C348.491 318.328 322.422 345.703 322.422 379.471C322.422 413.239 348.491 440.613 380.648 440.613Z" fill="url(#paint22_linear_127_21677)"/>
</g>
<path d="M380.647 438.758C411.833 438.758 437.115 412.21 437.115 379.461C437.115 346.712 411.833 320.164 380.647 320.164C349.461 320.164 324.18 346.712 324.18 379.461C324.18 412.21 349.461 438.758 380.647 438.758Z" fill="url(#paint23_linear_127_21677)"/>
<path d="M379.44 437.487C409.96 437.487 434.701 411.506 434.701 379.458C434.701 347.41 409.96 321.43 379.44 321.43C348.921 321.43 324.18 347.41 324.18 379.458C324.18 411.506 348.921 437.487 379.44 437.487Z" fill="url(#paint24_linear_127_21677)"/>
<path d="M385.281 377.801L427.376 394.124C428.747 389.512 429.485 384.608 429.485 379.523C429.485 353.337 409.906 331.953 385.281 330.633V377.802V377.801Z" fill="url(#paint25_linear_127_21677)"/>
<path d="M379.288 384.067C381.228 384.067 382.802 382.415 382.802 380.377C382.802 378.339 381.228 376.688 379.288 376.688C377.347 376.688 375.773 378.339 375.773 380.377C375.773 382.415 377.347 384.067 379.288 384.067Z" fill="url(#paint26_linear_127_21677)"/>
<path d="M379.291 350.969C378.065 350.969 377.07 352.013 377.07 353.3V378.171C377.07 379.459 378.065 380.503 379.291 380.503C380.516 380.503 381.511 379.459 381.511 378.171V353.3C381.511 352.013 380.516 350.969 379.291 350.969Z" fill="url(#paint27_linear_127_21677)"/>
<path d="M379.041 380.922C378.561 380.362 377.742 380.314 377.208 380.816L347.307 409.545C346.772 410.048 346.728 410.909 347.207 411.469C347.686 412.029 348.506 412.077 349.04 411.575L378.941 382.847C379.476 382.344 379.52 381.482 379.041 380.922Z" fill="url(#paint28_linear_127_21677)"/>
<g clip-path="url(#clip0_127_21677)">
<path d="M147.588 52.3208C147.588 82.1748 123.532 107.984 93.7659 109.974C63.8974 111.971 39.6094 89.2435 39.6094 59.2051C39.6094 29.1667 63.8974 3.34128 93.7659 1.53015C123.532 -0.275205 147.588 22.4668 147.588 52.3208Z" fill="#DB0916"/>
<path d="M91.8548 85.1161C89.5134 85.2689 87.3349 84.1796 86.1232 82.2345L65.7714 49.5536C63.8638 46.4904 64.8911 42.2961 68.0652 40.1853C71.2365 38.0745 75.353 38.8453 77.2577 41.9071L91.3721 64.593L109.996 26.6631C111.668 23.2584 115.683 21.698 118.963 23.1734C122.242 24.6488 123.547 28.6025 121.877 32.0043L97.8097 81.0602C96.7075 83.3065 94.516 84.8525 92.0882 85.096C92.0104 85.1032 91.9312 85.1104 91.8534 85.1161H91.8548Z" fill="url(#paint29_linear_127_21677)"/>
<path d="M152.104 52.3208C152.104 82.1748 128.048 107.984 98.2815 109.974C68.4131 111.971 44.125 89.2435 44.125 59.2037C44.125 29.1638 68.4116 3.34128 98.28 1.53015C128.046 -0.275205 152.102 22.4668 152.102 52.3208H152.104Z" fill="url(#paint30_linear_127_21677)"/>
<path d="M96.3704 85.1161C94.0291 85.2689 91.8505 84.1796 90.6388 82.2345L70.2871 49.5536C68.3794 46.4904 69.4067 42.2961 72.5809 40.1853C75.7521 38.0745 79.8686 38.8453 81.7734 41.9071L95.8877 64.593L114.512 26.6631C116.183 23.2584 120.199 21.698 123.478 23.1734C126.758 24.6488 128.063 28.6025 126.393 32.0043L102.325 81.0602C101.223 83.3065 99.0316 84.8525 96.6038 85.096C96.526 85.1032 96.4468 85.1104 96.369 85.1161H96.3704Z" fill="white"/>
</g>
<defs>
<linearGradient id="paint0_linear_127_21677" x1="268.344" y1="318.969" x2="327.306" y2="318.969" gradientUnits="userSpaceOnUse">
<stop stop-color="#F9A6AB"/>
<stop offset="0.512133" stop-color="#E24B54"/>
<stop offset="1" stop-color="#BD0B16"/>
</linearGradient>
<linearGradient id="paint1_linear_127_21677" x1="243.72" y1="360.708" x2="295.961" y2="360.708" gradientUnits="userSpaceOnUse">
<stop stop-color="#F9A6AB"/>
<stop offset="0.512133" stop-color="#E24B54"/>
<stop offset="1" stop-color="#BD0B16"/>
</linearGradient>
<linearGradient id="paint2_linear_127_21677" x1="329.787" y1="156.488" x2="378.952" y2="137.282" gradientUnits="userSpaceOnUse">
<stop offset="0.239976" stop-color="#F8285A"/>
<stop offset="1" stop-color="#DB0916"/>
</linearGradient>
<linearGradient id="paint3_linear_127_21677" x1="296.277" y1="161.112" x2="358.782" y2="215.89" gradientUnits="userSpaceOnUse">
<stop offset="0.239976" stop-color="#F8285A"/>
<stop offset="1" stop-color="#DB0916"/>
</linearGradient>
<linearGradient id="paint4_linear_127_21677" x1="126.674" y1="439.879" x2="130.996" y2="440.461" gradientUnits="userSpaceOnUse">
<stop stop-color="#D3B5AA"/>
<stop offset="1" stop-color="#F7A491"/>
</linearGradient>
<linearGradient id="paint5_linear_127_21677" x1="74.8819" y1="449.81" x2="80.9706" y2="450.625" gradientUnits="userSpaceOnUse">
<stop stop-color="#D3B5AA"/>
<stop offset="1" stop-color="#F7A491"/>
</linearGradient>
<linearGradient id="paint6_linear_127_21677" x1="121.645" y1="310.91" x2="121.645" y2="310.91" gradientUnits="userSpaceOnUse">
<stop stop-color="#6C0007"/>
<stop offset="1" stop-color="#D7111E"/>
</linearGradient>
<linearGradient id="paint7_linear_127_21677" x1="121.168" y1="310.917" x2="121.168" y2="310.917" gradientUnits="userSpaceOnUse">
<stop stop-color="#6C0007"/>
<stop offset="1" stop-color="#D7111E"/>
</linearGradient>
<linearGradient id="paint8_linear_127_21677" x1="93.0215" y1="308.483" x2="93.0215" y2="308.483" gradientUnits="userSpaceOnUse">
<stop stop-color="#6C0007"/>
<stop offset="1" stop-color="#D7111E"/>
</linearGradient>
<linearGradient id="paint9_linear_127_21677" x1="95.0369" y1="197.631" x2="41.9745" y2="246.195" gradientUnits="userSpaceOnUse">
<stop stop-color="#3F0004"/>
<stop offset="1" stop-color="#9C111A"/>
</linearGradient>
<linearGradient id="paint10_linear_127_21677" x1="205.71" y1="266.824" x2="215.825" y2="268.147" gradientUnits="userSpaceOnUse">
<stop stop-color="#D3B5AA"/>
<stop offset="1" stop-color="#F7A491"/>
</linearGradient>
<linearGradient id="paint11_linear_127_21677" x1="80.5625" y1="287.601" x2="221.524" y2="347.662" gradientUnits="userSpaceOnUse">
<stop stop-color="#B02932"/>
<stop offset="1" stop-color="#EF1A1A"/>
</linearGradient>
<linearGradient id="paint12_linear_127_21677" x1="99.9172" y1="344.751" x2="247.088" y2="354.007" gradientUnits="userSpaceOnUse">
<stop stop-color="#FE91AB"/>
<stop offset="0.442101" stop-color="#F8285A"/>
<stop offset="1" stop-color="#DB0916"/>
</linearGradient>
<linearGradient id="paint13_linear_127_21677" x1="161.974" y1="215.672" x2="167.056" y2="232.304" gradientUnits="userSpaceOnUse">
<stop stop-color="#D7111E"/>
<stop offset="1" stop-color="#DB0916"/>
</linearGradient>
<linearGradient id="paint14_linear_127_21677" x1="116.587" y1="302.039" x2="130.551" y2="307.681" gradientUnits="userSpaceOnUse">
<stop stop-color="#D3B5AA"/>
<stop offset="1" stop-color="#F7A491"/>
</linearGradient>
<linearGradient id="paint15_linear_127_21677" x1="135.201" y1="303.852" x2="69.1032" y2="210.634" gradientUnits="userSpaceOnUse">
<stop stop-color="#F8285A"/>
<stop offset="1" stop-color="#DB0916"/>
</linearGradient>
<linearGradient id="paint16_linear_127_21677" x1="108.917" y1="303.8" x2="99.867" y2="220.322" gradientUnits="userSpaceOnUse">
<stop stop-color="#FF636D"/>
<stop offset="1" stop-color="#DB0916"/>
</linearGradient>
<linearGradient id="paint17_linear_127_21677" x1="104.823" y1="287.075" x2="129.667" y2="295.101" gradientUnits="userSpaceOnUse">
<stop stop-color="#D3B5AA"/>
<stop offset="1" stop-color="#F7A491"/>
</linearGradient>
<linearGradient id="paint18_linear_127_21677" x1="136.05" y1="247.463" x2="145.038" y2="248.983" gradientUnits="userSpaceOnUse">
<stop stop-color="#D3B5AA"/>
<stop offset="1" stop-color="#F7A491"/>
</linearGradient>
<linearGradient id="paint19_linear_127_21677" x1="39.15" y1="241.687" x2="157.672" y2="478.966" gradientUnits="userSpaceOnUse">
<stop offset="0.239976" stop-color="#F8285A"/>
<stop offset="0.84338" stop-color="#DB0916"/>
</linearGradient>
<linearGradient id="paint20_linear_127_21677" x1="345.961" y1="314.15" x2="399.486" y2="338.025" gradientUnits="userSpaceOnUse">
<stop offset="0.239976" stop-color="#F8285A"/>
<stop offset="1" stop-color="#DB0916"/>
</linearGradient>
<linearGradient id="paint21_linear_127_21677" x1="206.866" y1="378.857" x2="494.892" y2="499.042" gradientUnits="userSpaceOnUse">
<stop offset="0.239976" stop-color="#F8285A"/>
<stop offset="1" stop-color="#DB0916"/>
</linearGradient>
<linearGradient id="paint22_linear_127_21677" x1="348.699" y1="464.419" x2="428.019" y2="432.575" gradientUnits="userSpaceOnUse">
<stop stop-color="#F8285A"/>
<stop offset="1" stop-color="#DB0916"/>
</linearGradient>
<linearGradient id="paint23_linear_127_21677" x1="226.918" y1="379.415" x2="499.204" y2="493.035" gradientUnits="userSpaceOnUse">
<stop offset="0.239976" stop-color="#F8285A"/>
<stop offset="1" stop-color="#DB0916"/>
</linearGradient>
<linearGradient id="paint24_linear_127_21677" x1="310.711" y1="564.701" x2="418.419" y2="274.401" gradientUnits="userSpaceOnUse">
<stop stop-color="#EBEFF2"/>
<stop offset="1" stop-color="white"/>
</linearGradient>
<linearGradient id="paint25_linear_127_21677" x1="347.212" y1="362.354" x2="461.69" y2="397.279" gradientUnits="userSpaceOnUse">
<stop offset="0.239976" stop-color="#F8285A"/>
<stop offset="0.86171" stop-color="#DB0916"/>
</linearGradient>
<linearGradient id="paint26_linear_127_21677" x1="369.72" y1="380.374" x2="386.665" y2="387.446" gradientUnits="userSpaceOnUse">
<stop offset="0.239976" stop-color="#F8285A"/>
<stop offset="1" stop-color="#DB0916"/>
</linearGradient>
<linearGradient id="paint27_linear_127_21677" x1="373.246" y1="365.724" x2="385.763" y2="366.549" gradientUnits="userSpaceOnUse">
<stop offset="0.239976" stop-color="#F8285A"/>
<stop offset="1" stop-color="#DB0916"/>
</linearGradient>
<linearGradient id="paint28_linear_127_21677" x1="318.887" y1="396.183" x2="395.234" y2="430.748" gradientUnits="userSpaceOnUse">
<stop offset="0.239976" stop-color="#F8285A"/>
<stop offset="1" stop-color="#DB0916"/>
</linearGradient>
<linearGradient id="paint29_linear_127_21677" x1="64.8119" y1="53.8732" x2="122.604" y2="53.8732" gradientUnits="userSpaceOnUse">
<stop stop-color="#B02932"/>
<stop offset="1" stop-color="#82070F"/>
</linearGradient>
<linearGradient id="paint30_linear_127_21677" x1="-1.34609" y1="190.837" x2="202.773" y2="243.106" gradientUnits="userSpaceOnUse">
<stop offset="0.09329" stop-color="#F8285A"/>
<stop offset="0.696967" stop-color="#DB0916"/>
</linearGradient>
<clipPath id="clip0_127_21677">
<rect width="112.5" height="108.667" fill="white" transform="translate(39.6094 1.39062)"/>
</clipPath>
</defs>
</svg>
