<svg width="168" height="53" viewBox="0 0 168 53" fill="none" xmlns="http://www.w3.org/2000/svg">
<rect x="1.80497" y="1.53934" width="164.396" height="49.3957" rx="7.93165" stroke="#DB0916" stroke-width="2.26619"/>
<path d="M24.3192 34.7344H21.6486C21.4106 33.9796 21.2671 33.1427 21.2178 32.2238C20.4712 34.0698 19.0682 34.9928 17.0089 34.9928C15.77 34.9928 14.7731 34.6318 14.0183 33.9098C13.2717 33.1796 12.8984 32.2648 12.8984 31.1654C12.8984 28.3102 15.4049 26.8826 20.4179 26.8826C20.6148 26.8826 20.8814 26.8867 21.2178 26.8949V25.9596C21.2178 24.6715 20.3399 24.0274 18.5842 24.0274C16.8776 24.0274 15.9095 24.6715 15.6797 25.9596L13.2922 25.6027C13.4235 24.5689 13.9568 23.7197 14.8921 23.0552C15.8274 22.3824 17.1812 22.046 18.9534 22.046C19.9133 22.046 20.6968 22.1281 21.304 22.2922C21.9111 22.448 22.4239 22.7188 22.8423 23.1044C23.2608 23.4818 23.5479 23.8961 23.7038 24.3474C23.8679 24.7904 23.9499 25.5453 23.9499 26.6119V32.2238C23.9499 33.036 24.073 33.8729 24.3192 34.7344ZM21.2178 28.4087C17.5914 28.4087 15.7782 29.2742 15.7782 31.0054C15.7782 31.5223 15.9587 31.9653 16.3197 32.3345C16.6889 32.6955 17.2427 32.876 17.9811 32.876C19.0477 32.876 19.8518 32.5397 20.3933 31.8669C20.943 31.1859 21.2178 30.4147 21.2178 29.5532V28.4087ZM37.6105 34.7344H34.8046V26.9688C34.8046 26.1483 34.6159 25.533 34.2385 25.1227C33.8611 24.7043 33.4057 24.4951 32.8724 24.4951C32.1422 24.4951 31.5022 24.8151 30.9525 25.455C30.4028 26.095 30.128 27.059 30.128 28.3471V34.7344H27.322V22.3045H29.8818V25.1843C30.7761 23.0921 32.0314 22.046 33.6477 22.046C34.739 22.046 35.6702 22.3906 36.4414 23.0798C37.2208 23.769 37.6105 24.9791 37.6105 26.7103V34.7344ZM51.1973 34.7344H48.5759V32.2238C47.8539 34.0698 46.6315 34.9928 44.9085 34.9928C43.3825 34.9928 42.2133 34.357 41.4011 33.0853C40.5888 31.8136 40.1827 30.2342 40.1827 28.3471C40.1827 26.5913 40.6052 25.0612 41.4503 23.7567C42.2954 22.4521 43.4973 21.7999 45.0562 21.7999C46.6561 21.7999 47.7678 22.5301 48.3913 23.9905V17.9355H51.1973V34.7344ZM48.3913 27.3995C48.3913 26.3903 48.1493 25.6068 47.6652 25.0489C47.1894 24.4828 46.5699 24.1997 45.8069 24.1997C44.9782 24.1997 44.3301 24.5607 43.8624 25.2827C43.3948 26.0047 43.1609 27.0836 43.1609 28.5194C43.1609 31.2926 44.0306 32.6791 45.77 32.6791C46.4592 32.6791 47.0663 32.3838 47.5914 31.793C48.1247 31.1941 48.3913 30.4311 48.3913 29.504V27.3995ZM65.2025 34.7344H62.5319C62.294 33.9796 62.1504 33.1427 62.1012 32.2238C61.3546 34.0698 59.9516 34.9928 57.8922 34.9928C56.6533 34.9928 55.6565 34.6318 54.9017 33.9098C54.1551 33.1796 53.7817 32.2648 53.7817 31.1654C53.7817 28.3102 56.2882 26.8826 61.3012 26.8826C61.4981 26.8826 61.7648 26.8867 62.1012 26.8949V25.9596C62.1012 24.6715 61.2233 24.0274 59.4675 24.0274C57.761 24.0274 56.7928 24.6715 56.5631 25.9596L54.1756 25.6027C54.3068 24.5689 54.8401 23.7197 55.7755 23.0552C56.7108 22.3824 58.0645 22.046 59.8367 22.046C60.7966 22.046 61.5802 22.1281 62.1873 22.2922C62.7945 22.448 63.3072 22.7188 63.7257 23.1044C64.1441 23.4818 64.4313 23.8961 64.5872 24.3474C64.7512 24.7904 64.8333 25.5453 64.8333 26.6119V32.2238C64.8333 33.036 64.9564 33.8729 65.2025 34.7344ZM62.1012 28.4087C58.4748 28.4087 56.6615 29.2742 56.6615 31.0054C56.6615 31.5223 56.842 31.9653 57.203 32.3345C57.5723 32.6955 58.1261 32.876 58.8645 32.876C59.9311 32.876 60.7351 32.5397 61.2766 31.8669C61.8263 31.1859 62.1012 30.4147 62.1012 29.5532V28.4087ZM70.999 34.7344H68.1931V17.9355H70.999V34.7344ZM85.0165 34.7344H82.3459C82.108 33.9796 81.9644 33.1427 81.9152 32.2238C81.1686 34.0698 79.7656 34.9928 77.7063 34.9928C76.4674 34.9928 75.4705 34.6318 74.7157 33.9098C73.9691 33.1796 73.5958 32.2648 73.5958 31.1654C73.5958 28.3102 76.1023 26.8826 81.1153 26.8826C81.3122 26.8826 81.5788 26.8867 81.9152 26.8949V25.9596C81.9152 24.6715 81.0373 24.0274 79.2815 24.0274C77.575 24.0274 76.6068 24.6715 76.3771 25.9596L73.9896 25.6027C74.1209 24.5689 74.6542 23.7197 75.5895 23.0552C76.5248 22.3824 77.8786 22.046 79.6507 22.046C80.6107 22.046 81.3942 22.1281 82.0013 22.2922C82.6085 22.448 83.1213 22.7188 83.5397 23.1044C83.9581 23.4818 84.2453 23.8961 84.4012 24.3474C84.5653 24.7904 84.6473 25.5453 84.6473 26.6119V32.2238C84.6473 33.036 84.7704 33.8729 85.0165 34.7344ZM81.9152 28.4087C78.2888 28.4087 76.4756 29.2742 76.4756 31.0054C76.4756 31.5223 76.6561 31.9653 77.0171 32.3345C77.3863 32.6955 77.9401 32.876 78.6785 32.876C79.7451 32.876 80.5491 32.5397 81.0906 31.8669C81.6403 31.1859 81.9152 30.4147 81.9152 29.5532V28.4087ZM86.5056 31.8792L89.1393 31.3746C89.5413 32.3838 90.4274 32.8883 91.7976 32.8883C93.537 32.8883 94.4066 32.3756 94.4066 31.35C94.4066 31.0218 94.2713 30.7511 94.0005 30.5377C93.7298 30.3244 93.4098 30.1808 93.0406 30.107L90.7761 29.6763C88.2655 29.1922 87.0102 27.9656 87.0102 25.9965C87.0102 24.8971 87.4081 23.9659 88.204 23.2029C88.9998 22.4316 90.1854 22.046 91.7607 22.046C94.3861 22.046 95.9901 23.0101 96.5726 24.9381L94.0744 25.4427C93.8118 24.5074 93.0652 24.0397 91.8345 24.0397C90.3413 24.0397 89.5947 24.5074 89.5947 25.4427C89.5947 26.0909 90.1977 26.538 91.4038 26.7842L94.0744 27.338C96.1501 27.7646 97.188 28.9543 97.188 30.9069C97.188 32.2771 96.6547 33.3027 95.5881 33.9837C94.5215 34.6564 93.2539 34.9928 91.7853 34.9928C90.5136 34.9928 89.3896 34.7385 88.4132 34.2298C87.4369 33.7129 86.801 32.9294 86.5056 31.8792ZM108.904 34.7344H106.197V24.4828H104.351V22.3045H106.197V21.6891C106.197 20.4748 106.492 19.4985 107.083 18.7601C107.673 18.0217 108.867 17.6525 110.664 17.6525C110.927 17.6525 111.259 17.6607 111.661 17.6771V19.88C111.308 19.8554 111.066 19.8431 110.935 19.8431C110.246 19.8431 109.761 19.9374 109.483 20.1261C109.204 20.3066 109.035 20.5241 108.978 20.7784C108.929 21.0245 108.904 21.5332 108.904 22.3045H111.661V24.4828H108.904V34.7344ZM124.374 34.7344H121.703C121.465 33.9796 121.322 33.1427 121.272 32.2238C120.526 34.0698 119.123 34.9928 117.064 34.9928C115.825 34.9928 114.828 34.6318 114.073 33.9098C113.326 33.1796 112.953 32.2648 112.953 31.1654C112.953 28.3102 115.46 26.8826 120.473 26.8826C120.669 26.8826 120.936 26.8867 121.272 26.8949V25.9596C121.272 24.6715 120.395 24.0274 118.639 24.0274C116.932 24.0274 115.964 24.6715 115.734 25.9596L113.347 25.6027C113.478 24.5689 114.011 23.7197 114.947 23.0552C115.882 22.3824 117.236 22.046 119.008 22.046C119.968 22.046 120.752 22.1281 121.359 22.2922C121.966 22.448 122.479 22.7188 122.897 23.1044C123.315 23.4818 123.603 23.8961 123.758 24.3474C123.923 24.7904 124.005 25.5453 124.005 26.6119V32.2238C124.005 33.036 124.128 33.8729 124.374 34.7344ZM121.272 28.4087C117.646 28.4087 115.833 29.2742 115.833 31.0054C115.833 31.5223 116.013 31.9653 116.374 32.3345C116.744 32.6955 117.297 32.876 118.036 32.876C119.102 32.876 119.906 32.5397 120.448 31.8669C120.998 31.1859 121.272 30.4147 121.272 29.5532V28.4087ZM130.183 34.7344H127.377V22.3045H129.912V25.2704C130.273 24.1136 130.769 23.2685 131.401 22.7352C132.033 22.2019 132.681 21.9353 133.346 21.9353C133.436 21.9353 133.559 21.9394 133.715 21.9476V24.9627C132.287 24.9627 131.339 25.4181 130.872 26.3288C130.412 27.2395 130.183 28.1215 130.183 28.9748V34.7344ZM154.304 34.7344H151.363V26.9934C151.363 25.3853 150.649 24.5812 149.221 24.5812C148.393 24.5812 147.728 24.8848 147.228 25.4919C146.735 26.0991 146.489 27.0057 146.489 28.2117V34.7344H143.511V26.9934C143.511 25.3607 142.842 24.5443 141.505 24.5443C140.693 24.5443 140.008 24.8725 139.45 25.5289C138.9 26.1852 138.625 27.0795 138.625 28.2117V34.7344H135.733V22.3045H138.453V24.9504C139.339 23.0142 140.721 22.046 142.6 22.046C144.43 22.046 145.62 23.0142 146.169 24.9504C147.17 23.0142 148.553 22.046 150.317 22.046C151.515 22.046 152.479 22.4193 153.209 23.1659C153.939 23.9126 154.304 24.8397 154.304 25.9473V34.7344Z" fill="#DB0916"/>
</svg>
