<svg width="438" height="274" viewBox="0 0 438 274" fill="none" xmlns="http://www.w3.org/2000/svg">
    <path
        d="M184.247 172.662C174.711 163.828 157.806 164.859 149.415 174.803C146.112 178.721 143.867 183.853 139.324 186.229C132.389 189.878 123.928 185.275 116.091 185.942C106.902 186.723 99.3598 196.051 100.487 205.196C100.998 209.323 102.957 213.718 101.016 217.394C98.5449 222.083 91.393 222.274 88.3848 226.635C85.6714 230.579 87.7866 236.396 91.7311 239.118C95.6755 241.84 100.756 242.178 105.541 241.961C110.326 241.745 115.181 241.095 119.845 242.135C124.985 243.296 129.381 246.469 134.313 248.411C146.077 253.127 159.852 250.5 170.723 244.025C181.594 237.549 190.055 227.649 197.407 217.324"
        fill="#DB0916" />
    <g opacity="0.8">
        <path
            d="M184.239 172.662C174.703 163.828 157.799 164.859 149.407 174.803C146.104 178.721 143.859 183.853 139.316 186.229C132.381 189.878 123.92 185.275 116.083 185.942C106.894 186.723 99.352 196.051 100.479 205.196C100.99 209.323 102.95 213.718 101.008 217.394C98.5371 222.083 91.3851 222.274 88.377 226.635C85.6636 230.579 87.7788 236.396 91.7232 239.118C95.6677 241.84 100.748 242.178 105.533 241.961C110.318 241.745 115.173 241.095 119.837 242.135C124.978 243.296 129.373 246.469 134.306 248.411C146.069 253.127 159.845 250.5 170.716 244.025C181.586 237.549 190.047 227.649 197.399 217.324"
            fill="white" />
    </g>
    <path
        d="M181.929 184.695C174.127 177.083 159.745 178.15 153.191 186.827C149.195 192.124 146.897 200.221 140.318 201.105C135.862 201.712 131.649 198.357 127.149 198.704C121.168 199.154 117.553 206.445 119.087 212.236C120.622 218.027 125.719 222.197 131.068 224.919C149.593 234.325 174.283 229.349 187.729 213.502"
        fill="#DB0916" />
    <path d="M358.53 204.069L348.5 189.851L361.547 180.602L370.684 199.162L359.128 203.947" fill="#FFBE9D" />
    <path
        d="M370.147 196.625L377.247 209.429C377.247 209.429 392.643 206.516 394.186 208.753L369.861 223.404L357.984 203.907L370.147 196.625Z"
        fill="#37474F" />
    <g opacity="0.6">
        <path
            d="M369.078 212.901C368.887 213.114 368.781 213.39 368.781 213.677C368.781 213.963 368.887 214.24 369.078 214.453C369.287 214.647 369.561 214.754 369.846 214.754C370.13 214.754 370.404 214.647 370.613 214.453C370.816 214.227 370.929 213.933 370.929 213.629C370.929 213.325 370.816 213.032 370.613 212.806C370.377 212.623 370.079 212.538 369.782 212.569C369.485 212.599 369.211 212.743 369.018 212.97"
            fill="white" />
    </g>
    <g opacity="0.6">
        <path
            d="M369.853 223.396L368.734 221.385L392.479 208.095C392.479 208.095 393.849 207.913 394.213 208.745L369.853 223.396Z"
            fill="white" />
    </g>
    <path
        d="M377.566 209.065C377.626 209.186 377.072 209.602 376.699 210.33C376.326 211.059 376.326 211.752 376.196 211.778C376.066 211.804 375.815 210.998 376.265 210.122C376.716 209.247 377.522 208.943 377.566 209.065Z"
        fill="white" />
    <path
        d="M380.75 208.583C380.845 208.678 380.455 209.19 380.351 209.935C380.247 210.681 380.455 211.288 380.351 211.348C380.247 211.409 379.753 210.793 379.892 209.866C380.03 208.938 380.68 208.487 380.75 208.583Z"
        fill="white" />
    <path
        d="M384.043 210.77C383.947 210.857 383.427 210.363 383.34 209.531C383.254 208.698 383.652 208.1 383.757 208.17C383.861 208.239 383.756 208.794 383.817 209.479C383.878 210.163 384.147 210.684 384.043 210.77Z"
        fill="white" />
    <path
        d="M375.622 206.32C375.622 206.459 374.989 206.624 374.348 207.074C373.706 207.525 373.307 208.054 373.186 207.985C373.065 207.915 373.307 207.196 374.053 206.676C374.798 206.156 375.622 206.199 375.622 206.32Z"
        fill="white" />
    <path
        d="M374.138 203.764C374.138 203.816 373.739 204.171 372.916 204.492C372.14 204.796 371.312 204.941 370.479 204.917C370.298 204.928 370.116 204.908 369.942 204.856C369.812 204.821 369.699 204.742 369.62 204.634C369.541 204.525 369.502 204.392 369.509 204.258C369.517 204.139 369.554 204.023 369.616 203.921C369.678 203.819 369.763 203.732 369.864 203.669C370.017 203.573 370.183 203.503 370.358 203.461C370.641 203.37 370.931 203.303 371.225 203.261C371.748 203.2 372.277 203.22 372.794 203.322C373.661 203.504 374.138 203.833 374.112 203.885C374.086 203.937 373.583 203.747 372.742 203.66C372.257 203.611 371.767 203.626 371.286 203.703C370.991 203.747 370.701 203.816 370.419 203.911C370.115 203.998 369.899 204.128 369.899 204.284C369.899 204.44 369.899 204.362 370.011 204.406C370.144 204.422 370.278 204.422 370.41 204.406C370.705 204.406 371 204.406 371.277 204.406C371.769 204.361 372.256 204.274 372.733 204.145C373.193 203.989 373.662 203.862 374.138 203.764Z"
        fill="white" />
    <path
        d="M374.09 204.036C374.09 204.079 373.57 203.793 373.058 203.047C372.765 202.611 372.551 202.127 372.425 201.617C372.346 201.314 372.3 201.003 372.287 200.689C372.257 200.489 372.278 200.284 372.349 200.095C372.421 199.905 372.539 199.737 372.694 199.606C372.8 199.537 372.923 199.5 373.05 199.5C373.176 199.5 373.299 199.537 373.405 199.606C373.558 199.707 373.692 199.833 373.804 199.979C374.008 200.224 374.175 200.499 374.298 200.793C374.503 201.292 374.583 201.834 374.532 202.371C374.437 203.238 374.029 203.724 373.995 203.689C374.083 203.271 374.149 202.848 374.194 202.423C374.195 201.947 374.091 201.477 373.89 201.045C373.774 200.793 373.623 200.56 373.44 200.351C373.249 200.117 373.024 199.97 372.946 200.057C372.869 200.145 372.813 200.249 372.781 200.361C372.75 200.474 372.744 200.592 372.763 200.707C372.761 200.998 372.793 201.289 372.859 201.574C372.956 202.049 373.123 202.508 373.353 202.935C373.752 203.611 374.142 203.975 374.09 204.036Z"
        fill="white" />
    <path d="M321.391 153.534L352.547 202.496L369.582 190.914L340.887 131.922" fill="#263238" />
    <path
        d="M323.913 142.792C324.043 142.845 323.106 144.838 322.664 147.465C322.222 150.092 322.404 152.276 322.265 152.294C321.63 149.021 322.216 145.628 323.913 142.758V142.792Z"
        fill="#455A64" />
    <path
        d="M320.708 142.938C320.838 142.938 320.708 145.087 321.064 147.688C321.419 150.289 322.069 152.317 321.931 152.361C320.582 149.415 320.153 146.131 320.7 142.938H320.708Z"
        fill="#455A64" />
    <path
        d="M199.895 153.394L178.526 146.797C152.744 179.626 154.469 215.698 195.968 237.05L219.019 211.233L199.895 153.394Z"
        fill="#263238" />
    <path
        d="M201.567 148.059C187.888 156.043 181.082 172.852 182.747 189.323C184.576 207.372 196.505 224.97 218.368 229.833L365.334 200.454C371.4 199.241 377.147 196.781 382.212 193.23C387.277 189.679 391.55 185.115 394.758 179.826C397.967 174.538 400.042 168.64 400.852 162.508C401.662 156.375 401.19 150.141 399.464 144.201C396.261 133.17 388.929 123.797 378.993 118.032C369.058 112.266 357.282 110.552 346.115 113.244L201.567 148.059Z"
        fill="#E0E0E0" />
    <path
        d="M201.981 148.156L203.342 147.809L207.356 146.821L222.813 143.05L279.699 129.266L318.987 119.73L340.885 114.442L346.563 113.081L349.485 112.526C349.97 112.431 350.456 112.327 350.95 112.249L352.441 112.119C353.438 112.041 354.435 111.919 355.432 111.867H358.466C359.481 111.872 360.494 111.941 361.5 112.075L363.026 112.231L363.789 112.318L364.543 112.465L367.568 113.081C368.574 113.315 369.554 113.653 370.55 113.948C371.045 114.104 371.547 114.242 372.042 114.416L373.489 114.997L374.937 115.595C375.432 115.773 375.913 115.987 376.376 116.236L379.176 117.693C380.104 118.204 380.971 118.82 381.872 119.427C382.314 119.721 382.739 119.99 383.199 120.293L384.456 121.282L385.721 122.279L386.354 122.773L386.935 123.328C393.5 129.224 398.193 136.915 400.433 145.451C402.749 154.307 402.289 163.661 399.115 172.247C395.834 181.072 389.875 188.65 382.072 193.919C378.78 196.145 375.201 197.915 371.435 199.181C367.69 200.49 363.797 201.062 360.009 201.86L337.469 206.359L294.436 215.011L218.86 230.086H218.782C214.929 229.178 211.187 227.85 207.625 226.124C201.043 222.817 195.403 217.9 191.231 211.829C189.352 209.054 187.755 206.097 186.463 203.004C186.151 202.259 185.909 201.487 185.597 200.742C185.307 200.008 185.061 199.259 184.86 198.496C184.643 197.742 184.435 196.997 184.227 196.251L183.759 194.023C183.587 193.294 183.457 192.556 183.369 191.813C183.273 191.084 183.169 190.356 183.074 189.637C182.979 188.917 182.97 188.198 182.918 187.487C182.866 186.776 182.822 186.074 182.831 185.38C182.722 180.287 183.442 175.21 184.964 170.348C186.166 166.453 187.917 162.748 190.165 159.347C191.812 156.845 193.769 154.561 195.991 152.551C196.442 152.152 196.858 151.745 197.265 151.415L198.461 150.505L199.467 149.733L200.334 149.17L201.938 148.164L200.36 149.213L199.493 149.785L198.487 150.566L197.343 151.476C196.936 151.814 196.528 152.213 196.077 152.62C193.877 154.637 191.94 156.923 190.313 159.425C188.08 162.819 186.343 166.515 185.154 170.4C183.657 175.246 182.952 180.301 183.065 185.371C183.065 186.065 183.065 186.767 183.152 187.469C183.239 188.172 183.239 188.891 183.325 189.611C183.412 190.33 183.516 191.05 183.62 191.778C183.709 192.516 183.839 193.248 184.01 193.971C184.166 194.699 184.322 195.445 184.478 196.19C184.634 196.936 184.903 197.664 185.111 198.418C185.316 199.177 185.562 199.923 185.848 200.655C186.125 201.392 186.368 202.155 186.715 202.892C188.002 205.964 189.594 208.9 191.466 211.656C193.515 214.539 195.869 217.193 198.487 219.571C201.322 222.006 204.429 224.107 207.746 225.83C211.283 227.541 214.999 228.855 218.825 229.748H218.756L294.306 214.56L337.374 205.943L359.914 201.435C363.711 200.629 367.594 200.065 371.279 198.765C375.007 197.517 378.547 195.767 381.803 193.564C389.534 188.341 395.437 180.829 398.682 172.082C401.826 163.583 402.283 154.322 399.991 145.555C397.778 137.102 393.137 129.483 386.64 123.64L386.059 123.094L385.461 122.669L384.213 121.689L382.965 120.71C382.548 120.389 382.098 120.129 381.647 119.843C380.78 119.288 379.913 118.672 378.985 118.17L376.211 116.722C375.749 116.483 375.274 116.269 374.79 116.08L373.351 115.499L371.912 114.91C371.426 114.745 370.932 114.607 370.438 114.459C369.45 114.173 368.479 113.826 367.482 113.592L364.491 112.985L363.745 112.829L362.982 112.751L361.474 112.595C360.477 112.459 359.472 112.386 358.466 112.379H355.466C354.469 112.431 353.481 112.552 352.502 112.63L351.019 112.76C350.534 112.829 350.048 112.933 349.563 113.029L346.676 113.575L340.972 114.867L319.082 120.129L279.786 129.604L222.873 143.214L207.391 146.942L203.359 147.895L201.981 148.156Z"
        fill="#7E8299" />
    <path d="M271.195 131.475C271.195 131.475 227.217 88.8058 171.336 106.777L201.998 148.154L271.195 131.475Z"
        fill="#DB0916" />
    <path
        d="M351.477 112.713C370.349 126.583 381.888 180.816 372.794 198.041C426.282 182.394 437.499 136.492 437.499 136.492C398.836 100.481 351.477 112.713 351.477 112.713Z"
        fill="#DB0916" />
    <path
        d="M437.477 136.477C437.477 136.477 437.373 136.676 437.147 137.057L436.133 138.739L434.477 141.479C434.148 142.016 433.792 142.597 433.419 143.212L432.084 145.12C431.14 146.463 430.108 147.972 428.938 149.584L424.854 154.647C424.083 155.514 423.251 156.381 422.41 157.325C421.569 158.27 420.737 159.224 419.809 160.126C417.885 161.946 415.908 163.931 413.602 165.76C408.693 169.891 403.323 173.44 397.599 176.337C394.414 177.96 391.124 179.368 387.751 180.55C386.017 181.183 384.231 181.729 382.472 182.37C380.636 182.954 378.769 183.435 376.88 183.809C361.727 187.164 345.021 190.597 327.466 194.212C292.383 201.459 260.611 207.926 237.603 212.573L210.348 218.078L202.936 219.543L201.003 219.907C200.569 219.994 200.344 220.02 200.344 220.02L200.994 219.864L202.918 219.447L210.313 217.904L237.534 212.287L327.38 193.796C344.909 190.155 361.623 186.731 376.793 183.393C378.661 183.024 380.507 182.555 382.324 181.989C384.119 181.33 385.896 180.801 387.621 180.168C390.981 178.997 394.259 177.604 397.434 175.998C403.141 173.124 408.502 169.608 413.411 165.518C415.709 163.697 417.694 161.729 419.61 159.918C420.581 159.051 421.404 158.036 422.262 157.143C423.121 156.251 423.944 155.358 424.716 154.482L428.816 149.454C429.995 147.85 431.036 146.351 431.998 145.024L433.341 143.126L434.416 141.392L436.107 138.678C436.566 137.959 436.913 137.404 437.156 137.014C437.399 136.624 437.477 136.477 437.477 136.477Z"
        fill="#5E6278" />
    <path
        d="M298.303 214.072C298.303 214.072 298.243 214.019 298.147 213.898L297.722 213.361L296.136 211.28L294.992 209.763C294.593 209.2 294.194 208.558 293.743 207.882C292.876 206.529 291.784 205.021 290.805 203.235L289.201 200.461C288.646 199.499 288.16 198.441 287.614 197.375C286.479 195.26 285.499 192.893 284.415 190.44C279.95 179.588 277.381 168.049 276.821 156.327C276.752 153.631 276.631 151.074 276.761 148.673C276.813 147.476 276.761 146.315 276.891 145.205C277.021 144.095 277.081 143.029 277.168 142.015C277.298 139.978 277.636 138.157 277.853 136.553C277.983 135.756 278.07 135.01 278.2 134.326C278.33 133.641 278.468 133.034 278.59 132.47C278.824 131.378 279.006 130.528 279.145 129.87C279.205 129.601 279.257 129.384 279.301 129.202C279.344 129.02 279.361 128.977 279.37 128.985C279.376 129.063 279.376 129.142 279.37 129.219C279.37 129.393 279.301 129.618 279.257 129.887L278.789 132.488C278.685 133.051 278.564 133.667 278.434 134.343C278.304 135.019 278.243 135.773 278.13 136.579C277.94 138.183 277.628 139.995 277.515 142.024C277.437 143.038 277.35 144.104 277.272 145.205C277.194 146.306 277.203 147.468 277.168 148.673C277.055 151.065 277.168 153.614 277.263 156.301C277.85 167.971 280.396 179.459 284.797 190.284C285.863 192.746 286.825 195.112 287.944 197.219C288.49 198.285 288.967 199.334 289.504 200.305L291.082 203.079C292.036 204.874 293.093 206.391 293.951 207.752C294.394 208.437 294.818 209.078 295.174 209.65C295.529 210.222 295.945 210.717 296.275 211.185C296.925 212.052 297.428 212.806 297.8 213.317L298.182 213.881C298.23 213.939 298.27 214.003 298.303 214.072Z"
        fill="#5E6278" />
    <path
        d="M257.019 168.611L164.841 187.682C164.841 187.682 164.434 196.69 166.696 196.759C168.586 196.82 237.115 184.458 259.342 180.435C260.196 180.281 261.007 179.943 261.718 179.445C262.429 178.947 263.023 178.301 263.46 177.551C263.897 176.801 264.165 175.965 264.248 175.101C264.33 174.237 264.224 173.365 263.937 172.546C263.451 171.167 262.484 170.009 261.213 169.286C259.942 168.563 258.453 168.323 257.019 168.611Z"
        fill="#DB0916" />
    <path
        d="M349.639 160.101C349.655 148.792 339.806 139.611 327.64 139.594C315.474 139.577 305.599 148.731 305.583 160.039C305.567 171.348 315.417 180.529 327.583 180.546C339.748 180.563 349.623 171.41 349.639 160.101Z"
        fill="#FAFAFA" />
    <path
        d="M349.644 160.11C349.635 159.994 349.635 159.878 349.644 159.763C349.644 159.511 349.592 159.182 349.566 158.757C349.566 158.532 349.566 158.289 349.514 158.012C349.462 157.734 349.419 157.448 349.358 157.145C349.297 156.841 349.245 156.486 349.185 156.122C349.124 155.758 348.977 155.376 348.864 154.969C348.61 154.081 348.294 153.212 347.919 152.368C346.31 148.893 343.783 145.923 340.611 143.777C337.9 141.929 334.816 140.698 331.578 140.171C330.695 140.021 329.803 139.928 328.908 139.894C328.448 139.894 327.989 139.833 327.529 139.842L326.134 139.911H325.432L324.721 140.006L323.299 140.214L321.886 140.552L321.166 140.717L320.473 140.96C316.504 142.221 312.983 144.598 310.33 147.808C307.451 151.242 305.873 155.581 305.873 160.062C305.873 164.543 307.451 168.882 310.33 172.316C312.972 175.531 316.484 177.917 320.447 179.19L321.149 179.433L321.869 179.606L323.282 179.944L324.703 180.152L325.406 180.256H326.116L327.512 180.326C327.972 180.326 328.431 180.326 328.882 180.282C329.777 180.248 330.669 180.156 331.552 180.005C334.771 179.485 337.835 178.259 340.524 176.416C344.557 173.817 347.507 169.839 348.821 165.224C348.925 164.817 349.055 164.444 349.133 164.08C349.211 163.716 349.263 163.369 349.315 163.048C349.367 162.728 349.427 162.442 349.471 162.181C349.514 161.921 349.471 161.661 349.523 161.445C349.557 161.017 349.583 160.679 349.601 160.43C349.608 160.317 349.622 160.204 349.644 160.092C349.654 160.208 349.654 160.324 349.644 160.439V161.445C349.644 161.67 349.644 161.921 349.644 162.199C349.644 162.476 349.557 162.771 349.505 163.066C349.453 163.36 349.401 163.733 349.349 164.106C349.297 164.479 349.15 164.852 349.046 165.268C348.802 166.176 348.492 167.066 348.118 167.929C347.658 168.953 347.115 169.939 346.497 170.876C344.978 173.16 343.033 175.13 340.767 176.676C338.023 178.566 334.893 179.825 331.604 180.36C330.706 180.514 329.8 180.609 328.89 180.646C328.431 180.646 327.963 180.707 327.495 180.698L326.082 180.638H325.362L324.643 180.534L323.195 180.326L321.756 179.988L321.028 179.814L320.317 179.571C316.268 178.283 312.677 175.854 309.975 172.576C307.024 169.067 305.406 164.629 305.406 160.045C305.406 155.46 307.024 151.022 309.975 147.514C312.704 144.251 316.316 141.843 320.377 140.578L321.088 140.344L321.817 140.171L323.264 139.833L324.712 139.625L325.423 139.529H326.142L327.564 139.469C328.032 139.469 328.5 139.512 328.96 139.529C329.87 139.565 330.777 139.664 331.673 139.824C334.93 140.358 338.03 141.604 340.75 143.474C343.013 145.024 344.954 147 346.463 149.291C347.625 151.004 348.484 152.904 349.003 154.908C349.107 155.316 349.219 155.697 349.297 156.07C349.375 156.443 349.41 156.789 349.453 157.11C349.497 157.431 349.549 157.726 349.592 157.977C349.635 158.228 349.592 158.497 349.592 158.723C349.592 159.156 349.592 159.485 349.592 159.737C349.62 159.859 349.638 159.984 349.644 160.11Z"
        fill="#263238" />
    <path
        d="M67.0297 234.089C64.481 235.216 61.5769 235.078 58.8114 234.774C56.046 234.471 53.2459 234.003 50.5152 234.54C46.2847 235.407 42.557 238.562 38.2485 238.337C32.2755 238.025 28.7125 231.593 23.4331 228.801C17.018 225.334 8.40965 227.501 3.24291 221.121C1.70815 219.221 0.771178 216.909 0.550514 214.477C0.32985 212.045 0.835402 209.603 2.00323 207.458C5.75692 200.688 14.426 199.561 21.1878 201.997C27.0047 204.086 31.764 208.325 36.298 212.521C37.841 213.951 39.3841 215.39 40.9792 216.769C43.5284 218.964 46.4976 220.619 49.7063 221.631C52.915 222.642 56.296 222.991 59.6437 222.655C62.8832 222.32 66.1266 223.252 68.6941 225.256C69.3843 225.804 69.9266 226.516 70.2719 227.328C70.6335 228.108 70.7916 228.966 70.7314 229.824C70.5233 231.948 69.0929 233.179 67.0297 234.089Z"
        fill="#DB0916" />
    <g opacity="0.8">
        <path
            d="M67.0297 234.089C64.481 235.216 61.5769 235.078 58.8114 234.774C56.046 234.471 53.2459 234.003 50.5152 234.54C46.2847 235.407 42.557 238.562 38.2485 238.337C32.2755 238.025 28.7125 231.593 23.4331 228.801C17.018 225.334 8.40965 227.501 3.24291 221.121C1.70815 219.221 0.771178 216.909 0.550514 214.477C0.32985 212.045 0.835402 209.603 2.00323 207.458C5.75692 200.688 14.426 199.561 21.1878 201.997C27.0047 204.086 31.764 208.325 36.298 212.521C37.841 213.951 39.3841 215.39 40.9792 216.769C43.5284 218.964 46.4976 220.619 49.7063 221.631C52.915 222.642 56.296 222.991 59.6437 222.655C62.8832 222.32 66.1266 223.252 68.6941 225.256C69.3843 225.804 69.9266 226.516 70.2719 227.328C70.6335 228.108 70.7916 228.966 70.7314 229.824C70.5233 231.948 69.0929 233.179 67.0297 234.089Z"
            fill="white" />
    </g>
    <path
        d="M252.968 107.405C245.886 107.058 242.392 112.398 238.431 113.473C234.469 114.548 230.143 114.739 226.337 113.196C221.396 111.184 218.024 106.633 213.698 103.521C205.029 97.2707 192.155 97.6434 183.85 104.388C183.66 109.112 187.699 112.849 191.609 115.502C195.519 118.154 206.346 121.969 207.759 126.494C208.8 129.875 201.5 132.718 203.338 135.744C205.176 138.769 211.253 138.466 214.608 137.885C235.778 134.244 228.348 140.72 234.902 140.121C234.902 140.121 248.625 136.654 259.384 134.868"
        fill="#37474F" />
    <path d="M324.328 232.042L317.453 216.065L332.13 209.711L337.236 229.754L324.952 232.042" fill="#FFBE9D" />
    <path
        d="M337.223 227.156L341.558 241.157C341.558 241.157 357.223 241.486 358.272 244L331.398 253.302L323.812 231.768L337.223 227.156Z"
        fill="#37474F" />
    <g opacity="0.6">
        <path
            d="M332.819 242.866C332.589 243.035 332.428 243.283 332.369 243.563C332.31 243.843 332.356 244.135 332.499 244.383C332.656 244.619 332.899 244.787 333.177 244.85C333.454 244.912 333.745 244.866 333.99 244.721C334.235 244.543 334.405 244.28 334.467 243.984C334.53 243.688 334.48 243.379 334.328 243.117C334.138 242.885 333.865 242.737 333.567 242.703C333.269 242.669 332.97 242.752 332.733 242.935"
            fill="white" />
    </g>
    <g opacity="0.6">
        <path
            d="M331.403 253.299L330.727 251.097L356.734 243C356.734 243 358.112 243.104 358.268 243.997L331.403 253.299Z"
            fill="white" />
    </g>
    <path
        d="M341.919 240.869C341.919 241 341.321 241.286 340.827 241.927C340.333 242.569 340.168 243.245 340.029 243.236C339.89 243.227 339.83 242.369 340.445 241.632C341.061 240.896 341.902 240.739 341.919 240.869Z"
        fill="white" />
    <path
        d="M345.132 241.048C345.202 241.17 344.716 241.586 344.465 242.296C344.213 243.007 344.283 243.631 344.153 243.675C344.023 243.718 343.676 242.999 344.005 242.123C344.335 241.248 345.089 240.927 345.132 241.048Z"
        fill="white" />
    <path
        d="M347.899 243.868C347.786 243.938 347.378 243.348 347.465 242.507C347.552 241.667 348.072 241.181 348.159 241.268C348.245 241.354 348.011 241.875 347.951 242.559C347.89 243.244 348.029 243.808 347.899 243.868Z"
        fill="white" />
    <path
        d="M340.578 237.781C340.578 237.92 339.901 237.946 339.173 238.258C338.445 238.57 337.96 238.995 337.847 238.908C337.734 238.821 338.133 238.163 338.991 237.807C339.849 237.452 340.604 237.66 340.578 237.781Z"
        fill="white" />
    <path
        d="M339.662 234.978C339.263 235.254 338.795 235.414 338.31 235.438C337.797 235.517 337.276 235.538 336.758 235.498C336.452 235.469 336.148 235.42 335.848 235.351C335.666 235.324 335.49 235.265 335.328 235.178C335.21 235.114 335.116 235.013 335.061 234.891C335.006 234.769 334.993 234.632 335.025 234.501C335.06 234.387 335.122 234.282 335.205 234.195C335.287 234.108 335.389 234.041 335.501 233.999C335.67 233.942 335.844 233.907 336.021 233.895C336.333 233.868 336.646 233.868 336.958 233.895C337.483 233.941 337.998 234.07 338.483 234.276C339.35 234.64 339.688 235.056 339.654 235.1C339.619 235.143 339.16 234.857 338.362 234.597C337.899 234.447 337.418 234.359 336.932 234.337C336.643 234.315 336.353 234.315 336.065 234.337C335.753 234.337 335.51 234.441 335.484 234.588C335.458 234.735 335.484 234.666 335.571 234.735C335.689 234.793 335.814 234.833 335.943 234.857C336.228 234.931 336.518 234.986 336.81 235.021C337.299 235.082 337.793 235.096 338.284 235.065C338.741 235.005 339.202 234.976 339.662 234.978Z"
        fill="white" />
    <path
        d="M339.56 235.225C339.56 235.225 339.092 234.878 338.753 234.046C338.554 233.558 338.443 233.039 338.424 232.512C338.415 232.199 338.435 231.885 338.485 231.576C338.493 231.373 338.556 231.176 338.665 231.006C338.775 230.835 338.928 230.697 339.109 230.605C339.228 230.564 339.355 230.559 339.477 230.59C339.598 230.621 339.708 230.686 339.794 230.778C339.919 230.913 340.024 231.064 340.106 231.229C340.252 231.501 340.358 231.793 340.418 232.096C340.525 232.623 340.495 233.169 340.331 233.682C340.045 234.549 339.551 234.904 339.525 234.87C339.705 234.453 339.864 234.028 340.002 233.595C340.101 233.133 340.101 232.654 340.002 232.191C339.939 231.922 339.84 231.662 339.707 231.42C339.568 231.151 339.378 230.96 339.282 231.021C339.189 231.093 339.113 231.185 339.059 231.29C339.005 231.394 338.975 231.51 338.97 231.628C338.915 231.913 338.886 232.203 338.884 232.494C338.887 232.979 338.957 233.46 339.092 233.925C339.308 234.74 339.62 235.182 339.56 235.225Z"
        fill="white" />
    <path
        d="M254.132 107.93C254.132 107.93 241.415 133.113 249.962 139.017C258.51 144.92 298.431 174.915 298.431 174.915L318.795 229.295L337.866 221.493L321.976 157.846L281.856 121.8L254.132 107.93Z"
        fill="#B82A28" />
    <path
        d="M303.103 164.938C303.216 165.024 301.898 166.775 300.918 169.272C299.939 171.769 299.67 173.927 299.531 173.91C299.591 170.584 300.861 167.395 303.103 164.938Z"
        fill="white" />
    <path
        d="M299.957 164.422C300.087 164.422 299.515 166.52 299.325 169.138C299.134 171.756 299.325 173.88 299.212 173.897C298.793 172.335 298.678 170.708 298.874 169.103C298.925 167.487 299.293 165.896 299.957 164.422Z"
        fill="white" />
    <path
        d="M320.721 228.478C320.669 228.394 320.628 228.304 320.599 228.21C320.513 228.01 320.409 227.741 320.27 227.395C319.975 226.658 319.568 225.609 319.039 224.257C317.99 221.517 316.438 217.529 314.635 212.553C312.832 207.577 310.621 201.604 308.341 194.86C307.769 193.178 307.206 191.436 306.651 189.659C306.096 187.881 305.585 186.035 304.839 184.214C303.383 180.6 301.64 176.941 299.733 173.231L299.794 173.292C297.652 171.48 295.39 169.581 293.066 167.674C291.255 166.183 289.46 164.718 287.648 163.34L282.273 159.265C278.754 156.586 275.338 154.012 272.035 151.662C268.732 149.313 265.473 147.25 262.499 145.195C259.694 143.342 257.062 141.239 254.637 138.91C253.577 137.884 252.64 136.737 251.845 135.495C251.15 134.371 250.635 133.145 250.319 131.862C249.848 129.805 249.822 127.672 250.241 125.603C250.498 124.305 250.869 123.031 251.351 121.798C251.507 121.373 251.654 121.061 251.741 120.844C251.783 120.733 251.835 120.625 251.897 120.523C251.897 120.523 251.897 120.645 251.784 120.862C251.672 121.078 251.576 121.399 251.438 121.824C250.996 123.066 250.654 124.342 250.415 125.638C250.034 127.681 250.087 129.781 250.571 131.802C250.888 133.056 251.4 134.252 252.088 135.347C252.885 136.56 253.816 137.679 254.862 138.685C257.292 140.981 259.92 143.058 262.716 144.892C265.698 146.92 268.984 148.966 272.295 151.324C275.607 153.682 279.031 156.231 282.56 158.91L287.934 162.984C289.764 164.371 291.558 165.836 293.37 167.319C295.693 169.234 297.956 171.133 300.097 172.953V172.997C302.004 176.724 303.747 180.391 305.203 184.032C305.898 185.818 306.499 187.638 307.006 189.485C307.552 191.271 308.116 193.005 308.671 194.687C310.925 201.431 313.075 207.404 314.869 212.397L319.152 224.144C319.646 225.505 320.019 226.571 320.305 227.317L320.591 228.184C320.648 228.275 320.692 228.374 320.721 228.478Z"
        fill="white" />
    <path d="M269.812 115.992L294.398 119.477L307.003 122.685L289.743 128.874L269.812 115.992Z"
        fill="url(#paint0_linear_1295_15049)" />
    <path
        d="M239.715 114.213C239.574 114.434 239.402 114.632 239.204 114.803C238.709 115.31 238.182 115.785 237.626 116.225C233.954 119.164 229.529 121.012 224.856 121.556C224.155 121.642 223.448 121.683 222.741 121.677C222.48 121.704 222.216 121.687 221.961 121.625C221.961 121.547 223.062 121.513 224.813 121.235C227.091 120.885 229.318 120.259 231.445 119.372C233.57 118.478 235.581 117.334 237.435 115.965C238.857 114.916 239.663 114.161 239.715 114.213Z"
        fill="#263238" />
    <path
        d="M257.367 78.2192L252.625 113.866C252.625 113.866 268.385 112.834 279.499 116.527C290.613 120.22 297.444 120.116 297.444 120.116L295.121 97.9412L303.417 79.7363L307.067 101.019L324.11 118.565L335.215 116.051L323.702 96.7708L315.71 57.483C315.035 54.208 313.261 51.2622 310.682 49.1348L310.361 48.8747L293.63 39.5469L288.012 39.6596C283.265 39.7631 278.533 40.2502 273.864 41.116C270.95 41.6581 268.275 43.0908 266.209 45.2164C264.35 47.3044 263.01 49.8026 262.3 52.507L257.367 78.2192Z"
        fill="#DB0916" />
    <path
        d="M310.52 63.3125C310.418 63.7092 310.279 64.0953 310.104 64.4655L308.838 67.517C307.746 70.1177 306.237 73.6286 304.504 77.5296L300.065 87.5076C299.51 88.7126 299.042 89.7182 298.687 90.5158C298.531 90.8896 298.348 91.2517 298.141 91.5994C298.219 91.2005 298.347 90.8131 298.522 90.4464C298.808 89.7096 299.233 88.6693 299.77 87.3776C300.845 84.7769 302.371 81.2573 304.105 77.3476C305.839 73.4379 307.408 69.9269 308.569 67.3869L309.974 64.3875C310.118 64.0112 310.301 63.6509 310.52 63.3125Z"
        fill="#263238" />
    <path
        d="M263.23 57.1022C266.489 66.1873 272.766 86.9322 275.817 94.9336C276.755 97.3614 278.323 99.4952 280.36 101.115L314.169 125.032L321.971 114.881L296.632 90.4344L282.969 49.959C281.045 44.5582 273.061 41.6281 268.102 44.5148C264.34 46.7428 261.765 52.9411 263.23 57.1022Z"
        fill="#DB0916" />
    <path
        d="M283.625 51.6406C283.625 51.6406 283.721 51.8747 283.885 52.3341L284.613 54.3974C285.238 56.2265 286.157 58.8706 287.31 62.2428L296.845 90.3736L296.793 90.2956L322.176 114.716L322.315 114.855L322.194 115.011L316.576 122.319C315.822 123.29 315.076 124.269 314.383 125.171L314.253 125.344L314.071 125.214L288.116 106.515L282.299 102.328L280.903 101.323C280.428 100.999 279.976 100.643 279.551 100.256C278.725 99.4853 278.003 98.6112 277.401 97.6556C276.825 96.7422 276.351 95.7684 275.988 94.7515L274.869 91.8734C274.159 89.9922 273.482 88.1804 272.858 86.4379C270.37 79.5027 268.524 73.8332 267.293 69.9148C266.686 67.9643 266.218 66.4472 265.888 65.3983C265.741 64.8955 265.62 64.5314 265.542 64.2193C265.5 64.0854 265.465 63.9494 265.438 63.8119C265.438 63.8119 265.489 63.9419 265.585 64.2107C265.68 64.4794 265.802 64.8782 265.975 65.3723C266.313 66.4126 266.842 67.921 267.457 69.8628C268.749 73.7639 270.622 79.3987 273.153 86.3339C273.786 88.0677 274.471 89.8708 275.19 91.752C275.563 92.6883 275.936 93.6505 276.317 94.6214C276.678 95.6141 277.146 96.5646 277.713 97.4562C278.305 98.3732 279.009 99.212 279.811 99.9529C280.224 100.329 280.664 100.674 281.128 100.984L282.533 101.99L288.367 106.195L314.374 124.859H314.071L316.264 122.007L321.882 114.707V115.002L296.551 90.5904V90.547C292.65 78.8699 289.416 69.1693 287.145 62.3642L284.544 54.4841L283.877 52.4122C283.686 51.8834 283.625 51.6406 283.625 51.6406Z"
        fill="#263238" />
    <path
        d="M280.396 46.6982C280.344 46.7502 279.78 46.1607 278.662 45.4759C277.234 44.5784 275.599 44.0645 273.915 43.984C272.231 43.9035 270.554 44.2591 269.048 45.0164C267.886 45.5886 267.271 46.1261 267.219 46.0654C267.674 45.5021 268.249 45.0462 268.901 44.7303C270.433 43.8645 272.179 43.4498 273.937 43.5342C275.695 43.6185 277.393 44.1985 278.835 45.2071C279.457 45.586 279.989 46.0946 280.396 46.6982Z"
        fill="#263238" />
    <path
        d="M324.448 97.3014C324.448 97.4401 322.845 97.3014 320.981 97.7349C319.117 98.1683 317.773 99.0526 317.695 98.9312C318.567 98.0776 319.676 97.5067 320.877 97.2927C322.04 96.9307 323.287 96.9338 324.448 97.3014Z"
        fill="#263238" />
    <g opacity="0.4">
        <path
            d="M265.938 65.3672C265.938 65.3672 266.804 78.9255 267.819 85.1932C268.833 91.4608 270.809 97.8412 275.3 102.323C279.791 106.805 286.24 108.833 292.508 110.125C290.48 108.599 288.503 107.03 286.552 105.409C284.047 103.329 280.371 101.291 278.352 98.7254C274.468 93.7928 273.627 87.5598 271.624 81.6129C269.787 76.1167 267.784 70.8893 265.938 65.4019"
            fill="black" />
    </g>
    <g opacity="0.4">
        <path
            d="M305.4 91.2379C307.134 84.138 307.515 76.4486 307.767 69.1406C307.151 71.698 305.582 73.9086 304.611 76.3619C304.143 77.5235 303.406 79.6388 303.406 79.6388L305.365 91.0645"
            fill="black" />
    </g>
    <path
        d="M293.946 7.71875C293.85 8.37318 293.575 8.9883 293.151 9.49619C292.727 10.0041 292.172 10.385 291.545 10.5969C290.834 10.8309 290.054 10.8309 289.352 11.0997C288.99 11.2017 288.675 11.4241 288.457 11.7299C288.24 12.0358 288.133 12.4068 288.155 12.7814C288.277 13.3362 288.788 13.6917 289.204 14.0644C289.62 14.4372 290.002 15.0267 289.759 15.5295C289.516 16.0323 288.693 16.1363 288.277 16.5958C288.087 16.8613 287.993 17.1836 288.01 17.5097C288.027 17.8358 288.155 18.1464 288.372 18.3903C288.82 18.8668 289.337 19.2731 289.907 19.5953C290.479 19.9237 290.901 20.4613 291.085 21.095"
        fill="#263238" />
    <path
        d="M319.661 18.9778C321.568 14.9467 320.181 9.92735 317.207 6.59846C314.234 3.26957 309.969 1.39706 305.686 0.1574C305.071 -0.0159795 304.308 -0.146017 303.874 0.330777C303.712 0.561513 303.635 0.841191 303.655 1.12242C303.676 1.40364 303.793 1.66912 303.987 1.87386C304.388 2.27642 304.883 2.57412 305.426 2.74076C303.697 1.83751 301.792 1.31993 299.843 1.22369C299.161 1.1715 298.478 1.3159 297.875 1.6398C297.582 1.81205 297.35 2.07187 297.211 2.38282C297.073 2.69376 297.035 3.04022 297.104 3.37359C297.155 3.5371 297.245 3.68586 297.366 3.80726C297.487 3.92866 297.635 4.01914 297.798 4.07102C297.962 4.12291 298.135 4.13467 298.304 4.10532C298.473 4.07596 298.632 4.00636 298.768 3.9024C296.913 3.70095 295.045 4.13824 293.472 5.14207C292.362 5.85292 291.348 7.08392 291.616 8.3756C291.899 9.09596 292.223 9.79932 292.587 10.4822C293.047 11.8259 292.379 13.2649 291.868 14.5826C291.019 16.6317 290.72 18.8669 291.001 21.067C291.145 22.1658 291.531 23.2191 292.131 24.1513C292.73 25.0835 293.529 25.8716 294.468 26.4591"
        fill="#263238" />
    <path
        d="M293.071 52.9716C291.927 52.6649 290.856 52.1323 289.921 51.4052C288.985 50.6782 288.205 49.7713 287.626 48.738C287.047 47.7048 286.68 46.566 286.548 45.3889C286.415 44.2117 286.52 43.02 286.855 41.8839L294.814 14.9407C295.252 13.2963 296.016 11.7564 297.059 10.4123C298.103 9.0682 299.406 7.94712 300.891 7.11541C302.376 6.2837 304.012 5.75825 305.704 5.57015C307.395 5.38206 309.107 5.53514 310.739 6.02034L311.363 6.24572C314.39 7.34104 316.895 9.53539 318.379 12.3927C319.863 15.25 320.218 18.561 319.373 21.6678C317.735 27.6581 315.845 34.2639 314.674 37.3761C312.256 43.8171 305.424 42.4821 305.424 42.4821L303.743 47.3107C303.008 49.4281 301.5 51.1889 299.52 52.239C297.54 53.2892 295.236 53.551 293.071 52.9716Z"
        fill="#FFBE9D" />
    <path
        d="M305.474 42.3894C302.467 41.3656 299.833 39.4705 297.906 36.9453C297.906 36.9453 298.218 42.3201 304.841 44.0712L305.474 42.3894Z"
        fill="#FD857D" />
    <path
        d="M304.246 9.9704C303.717 8.80876 303.05 6.27742 302.148 5.36718C301.247 4.45693 299.781 4.76034 298.55 5.1071C297.917 5.29083 297.335 5.62238 296.855 6.0745C296.374 6.52662 296.007 7.0864 295.785 7.7078C294.051 12.363 293.878 16.7669 292.612 21.3441C292.497 21.6422 292.47 21.9673 292.534 22.2804C292.777 23.0519 293.626 23.3293 294.433 23.4507C296.418 23.7368 297.432 22.289 298.368 20.5466C298.683 19.4913 298.915 18.4131 299.062 17.3217C299.173 15.7907 299.684 14.3158 300.546 13.0452C301.407 11.7746 302.588 10.753 303.969 10.0831L304.246 9.9704Z"
        fill="#263238" />
    <path
        d="M295.936 18.6369C295.85 18.5502 291.966 15.7155 290.51 20.1887C289.053 24.6619 293.847 25.208 293.899 25.078C293.951 24.9479 295.936 18.6369 295.936 18.6369Z"
        fill="#FFBE9D" />
    <path
        d="M293.083 22.9717C293.083 22.9717 292.988 22.9717 292.832 23.0237C292.62 23.0374 292.41 22.9726 292.242 22.8417C292.014 22.564 291.864 22.2304 291.808 21.8754C291.751 21.5203 291.791 21.1566 291.922 20.8218C292.035 20.4336 292.234 20.0753 292.503 19.7729C292.591 19.6478 292.708 19.5456 292.843 19.4747C292.979 19.4039 293.13 19.3664 293.283 19.3654C293.379 19.3739 293.47 19.4144 293.541 19.4803C293.611 19.5463 293.658 19.634 293.673 19.7295C293.673 19.8769 293.673 19.9549 293.673 19.9723C293.673 19.9896 293.794 19.9289 293.82 19.7295C293.83 19.6103 293.799 19.4914 293.734 19.3914C293.687 19.3254 293.628 19.2692 293.559 19.2261C293.491 19.1829 293.415 19.1537 293.335 19.14C293.139 19.1181 292.941 19.1463 292.759 19.2222C292.577 19.298 292.417 19.4189 292.295 19.5735C291.982 19.8992 291.75 20.2943 291.618 20.7265C291.468 21.1186 291.436 21.5463 291.527 21.9563C291.618 22.3664 291.828 22.7406 292.13 23.0324C292.238 23.1061 292.361 23.1546 292.49 23.1741C292.619 23.1936 292.751 23.1837 292.875 23.1451C293.04 23.0498 293.092 22.9717 293.083 22.9717Z"
        fill="#FD857D" />
    <path
        d="M302.529 10.9316C304.731 9.42319 307.002 10.1687 308.519 11.053C310.036 11.9372 311.319 13.1855 312.853 13.9917C314.388 14.798 316.442 15.0754 317.829 13.9917C318.319 13.5544 318.712 13.0205 318.985 12.4238C319.258 11.827 319.405 11.1803 319.416 10.5242C319.515 9.27542 319.365 8.01953 318.975 6.82912C318.585 5.63872 317.963 4.53743 317.145 3.58896C316.72 3.09483 316.061 2.61804 315.463 2.87811C314.726 3.20753 314.847 4.28248 315.081 5.05402C315.081 5.05402 307.557 2.27128 302.945 3.87504C298.333 5.4788 302.529 10.9316 302.529 10.9316Z"
        fill="#263238" />
    <path
        d="M305.354 0.0703125C305.354 0.0703125 305.44 0.399734 305.675 0.937211C306.028 1.68466 306.513 2.36284 307.105 2.93974C307.984 3.79699 308.997 4.50553 310.104 5.03764C310.757 5.3445 311.444 5.57433 312.15 5.72249C312.887 5.8872 313.676 5.99989 314.474 6.21662C315.273 6.41263 316.018 6.78925 316.649 7.31758C317.229 7.82131 317.678 8.45781 317.959 9.17275C318.215 9.82216 318.308 10.5249 318.227 11.2186C318.148 11.8164 317.928 12.3869 317.586 12.8831C317.097 13.606 316.38 14.1435 315.549 14.4088C315.323 14.4726 315.09 14.5075 314.855 14.5128C314.699 14.5128 314.612 14.5128 314.612 14.5128C314.612 14.5128 314.95 14.5128 315.479 14.2788C316.244 13.9795 316.893 13.4453 317.334 12.753C317.634 12.2811 317.824 11.7478 317.889 11.1926C317.949 10.5572 317.851 9.91683 317.603 9.32879C317.34 8.66137 316.921 8.06678 316.381 7.59499C315.795 7.11826 315.111 6.77772 314.378 6.59806C313.615 6.39 312.826 6.26863 312.072 6.09525C311.34 5.93765 310.629 5.69016 309.957 5.35839C308.821 4.79824 307.791 4.04431 306.914 3.13046C306.317 2.5173 305.851 1.7887 305.544 0.989223C305.462 0.771398 305.407 0.544315 305.38 0.313043C305.356 0.2345 305.347 0.152139 305.354 0.0703125Z"
        fill="#455A64" />
    <path
        d="M300.383 1.42188C300.383 1.42188 300.496 1.7513 300.747 2.28877C301.123 3.06732 301.648 3.76517 302.29 4.34333C303.256 5.19249 304.386 5.83295 305.611 6.22449C307.125 6.69819 308.672 7.05752 310.24 7.29945C311.84 7.52967 313.4 7.97889 314.878 8.63447C315.545 8.95598 316.081 9.49798 316.395 10.1689C316.625 10.7696 316.662 11.4275 316.499 12.0501C316.243 12.9305 315.672 13.6862 314.895 14.174C314.693 14.3078 314.478 14.421 314.254 14.512C314.177 14.5508 314.096 14.5771 314.011 14.5901C314.011 14.5901 314.314 14.4167 314.809 14.0439C315.506 13.5457 316.006 12.8186 316.222 11.9894C316.36 11.4336 316.321 10.8483 316.109 10.3163C315.816 9.72156 315.326 9.24675 314.722 8.97256C313.27 8.35392 311.742 7.92841 310.179 7.70689C308.593 7.45995 307.031 7.08302 305.507 6.57992C304.245 6.16206 303.088 5.47594 302.117 4.56871C301.469 3.94932 300.961 3.1986 300.626 2.3668C300.537 2.14255 300.471 1.9103 300.427 1.67328C300.395 1.59342 300.38 1.50778 300.383 1.42188Z"
        fill="#455A64" />
    <path
        d="M315.055 24.7804C314.967 25.0432 314.78 25.2612 314.534 25.3877C314.287 25.5141 314.001 25.5389 313.737 25.4566C313.605 25.4235 313.48 25.3641 313.372 25.282C313.263 25.1998 313.172 25.0966 313.104 24.9785C313.036 24.8603 312.992 24.7297 312.976 24.5944C312.96 24.4591 312.971 24.3219 313.009 24.1909C313.098 23.9272 313.286 23.7085 313.534 23.5807C313.781 23.453 314.068 23.4262 314.335 23.5061C314.467 23.5411 314.59 23.6021 314.698 23.6855C314.806 23.7689 314.896 23.873 314.963 23.9918C315.03 24.1105 315.073 24.2414 315.088 24.3769C315.104 24.5123 315.093 24.6495 315.055 24.7804Z"
        fill="#263238" />
    <path
        d="M316.974 24.2068C316.8 24.2935 316.237 23.4699 315.145 23.0972C314.052 22.7244 313.081 22.9845 313.012 22.8111C312.943 22.6377 313.177 22.5423 313.619 22.4123C314.196 22.2513 314.81 22.2714 315.375 22.4698C315.941 22.6682 316.433 23.0355 316.783 23.5219C317.035 23.8947 317.06 24.1721 316.974 24.2068Z"
        fill="#263238" />
    <path
        d="M304.344 21.6942C304.255 21.9576 304.066 22.1757 303.819 22.3021C303.571 22.4284 303.283 22.4529 303.018 22.3704C302.886 22.3363 302.763 22.2762 302.655 22.1937C302.548 22.1111 302.457 22.0078 302.39 21.8897C302.323 21.7717 302.281 21.6414 302.265 21.5065C302.249 21.3717 302.26 21.235 302.298 21.1047C302.386 20.8416 302.572 20.623 302.818 20.4952C303.064 20.3673 303.35 20.3403 303.616 20.4198C303.749 20.4539 303.873 20.5142 303.982 20.5972C304.091 20.6802 304.182 20.7842 304.25 20.903C304.317 21.0219 304.361 21.1531 304.377 21.289C304.393 21.4249 304.382 21.5627 304.344 21.6942Z"
        fill="#263238" />
    <path
        d="M306.247 20.7031C306.074 20.7985 305.51 19.9662 304.426 19.5935C303.343 19.2207 302.355 19.4808 302.285 19.3074C302.216 19.134 302.459 19.0386 302.892 18.9086C303.463 18.7517 304.068 18.7729 304.626 18.9693C305.19 19.1623 305.679 19.5296 306.022 20.0182C306.299 20.3737 306.325 20.6684 306.247 20.7031Z"
        fill="#263238" />
    <path
        d="M307.438 30.1188C308.071 30.1388 308.7 30.2378 309.31 30.4136C309.596 30.4829 309.874 30.5176 309.986 30.3442C310.106 30.0718 310.142 29.7702 310.09 29.4773C310.09 28.7144 310.03 27.9169 310.004 27.0847C309.862 25.0343 309.888 22.9758 310.082 20.9297C310.379 22.9646 310.518 25.0195 310.498 27.076C310.498 27.9429 310.498 28.7058 310.498 29.4686C310.558 29.863 310.475 30.266 310.264 30.6043C310.191 30.6879 310.1 30.7539 309.998 30.7974C309.896 30.8409 309.785 30.8609 309.674 30.8557C309.504 30.8532 309.334 30.827 309.171 30.7777C308.569 30.6298 307.986 30.4085 307.438 30.1188Z"
        fill="#FD857D" />
    <path
        d="M303.973 29.7611C304.147 29.7611 303.739 30.9834 304.459 32.171C305.178 33.3587 306.479 33.6621 306.427 33.8355C306.375 34.0089 306.071 33.9655 305.56 33.8355C304.867 33.6062 304.278 33.1395 303.895 32.5178C303.525 31.9235 303.403 31.2071 303.557 30.5239C303.635 29.9691 303.861 29.7264 303.973 29.7611Z"
        fill="#FD857D" />
    <path
        d="M308.009 16.5514C307.792 16.8114 306.76 16.3 305.408 16.0052C304.056 15.7105 302.937 15.7105 302.859 15.3897C302.859 15.2337 303.102 15.017 303.614 14.8783C304.287 14.7145 304.989 14.7075 305.665 14.8578C306.341 15.0081 306.974 15.3117 307.515 15.7452C307.948 16.1179 308.104 16.43 308.009 16.5514Z"
        fill="#263238" />
    <path
        d="M317.679 20.9243C317.402 21.1063 316.743 20.5949 315.85 20.2654C314.957 19.936 314.116 19.858 314.047 19.5372C314.047 19.3899 314.22 19.1818 314.628 19.0604C315.172 18.939 315.74 18.9803 316.261 19.1791C316.782 19.3779 317.233 19.7256 317.558 20.1787C317.783 20.5428 317.844 20.8376 317.679 20.9243Z"
        fill="#263238" />
    <path
        d="M297.242 117.109C298.209 117.462 299.02 118.147 299.529 119.043C300.037 119.939 300.21 120.987 300.016 121.999L294.155 124.313L292.82 118.678L297.242 117.109Z"
        fill="#37474F" />
    <path
        d="M248.055 117.097C248.055 117.097 259.784 115.883 267.127 118.475C274.469 121.067 283.658 123 287.707 122.09C289.874 121.562 291.812 120.345 293.229 118.623C293.229 118.623 281.543 117.218 276.038 115.441C272.337 114.245 265.02 105.948 251.479 107.951L248.055 117.097Z"
        fill="#37474F" />
    <path
        d="M295.055 121.343C294.638 120.272 293.993 119.305 293.165 118.508L293.269 118.647C292.041 118.7 290.821 118.878 289.628 119.175C288.432 119.483 287.359 120.148 286.551 121.083C286.273 121.379 286.118 121.769 286.117 122.175C286.174 122.438 286.285 122.686 286.444 122.904C286.602 123.122 286.804 123.305 287.036 123.44C288.108 124.407 289.36 125.153 290.72 125.634C291.404 125.863 292.14 125.889 292.838 125.709C293.537 125.529 294.168 125.15 294.656 124.619C294.982 124.146 295.188 123.601 295.258 123.03C295.327 122.459 295.258 121.88 295.055 121.343Z"
        fill="#37474F" />
    <path
        d="M286.539 120.933C286.608 120.684 286.736 120.455 286.912 120.265C287.381 119.75 287.98 119.369 288.646 119.164C289.633 118.835 290.685 118.746 291.714 118.904C292.349 118.999 292.957 119.23 293.495 119.58C294.033 119.93 294.49 120.391 294.835 120.933C295.191 121.503 295.364 122.169 295.329 122.84C295.282 123.468 295.056 124.069 294.679 124.574C294.338 125.025 293.87 125.366 293.336 125.553C292.873 125.709 292.383 125.769 291.897 125.727C291.202 125.661 290.521 125.491 289.877 125.224C289.651 125.137 289.478 125.059 289.356 124.998C289.294 124.976 289.236 124.944 289.183 124.903L289.374 124.964L289.903 125.154C290.546 125.395 291.22 125.544 291.905 125.597C292.398 125.643 292.894 125.564 293.348 125.369C293.802 125.174 294.201 124.867 294.506 124.478C294.883 123.985 295.099 123.387 295.124 122.766C295.149 122.146 294.981 121.533 294.645 121.011C294.312 120.491 293.873 120.048 293.356 119.711C292.838 119.375 292.255 119.153 291.645 119.06C290.642 118.895 289.614 118.969 288.646 119.277C287.99 119.465 287.394 119.817 286.912 120.3C286.766 120.497 286.641 120.71 286.539 120.933Z"
        fill="#263238" />
    <path
        d="M293.621 120.133C291.729 120.776 290.066 121.957 288.836 123.531C288.959 123.262 289.122 123.013 289.321 122.794C290.231 121.677 291.431 120.831 292.789 120.35C293.054 120.237 293.335 120.164 293.621 120.133Z"
        fill="#263238" />
    <path
        d="M290.717 119.203C290.067 119.693 289.521 120.309 289.114 121.015C288.752 121.743 288.537 122.536 288.481 123.347C288.434 123.106 288.434 122.859 288.481 122.619C288.528 122.026 288.7 121.45 288.984 120.928C289.269 120.405 289.655 119.942 290.119 119.567C290.293 119.408 290.496 119.284 290.717 119.203Z"
        fill="#263238" />
    <path
        d="M293.933 125.269C293.933 125.269 293.881 124.983 293.707 124.567C293.472 124.03 293.12 123.553 292.676 123.171C291.618 122.304 290.552 121.827 290.595 121.758C290.833 121.828 291.063 121.924 291.28 122.044C291.826 122.307 292.336 122.639 292.797 123.032C293.262 123.433 293.617 123.946 293.829 124.523C293.926 124.759 293.962 125.015 293.933 125.269Z"
        fill="#263238" />
    <path
        d="M269.298 119.067C268.907 119.034 268.521 118.961 268.145 118.85C267.408 118.685 266.35 118.451 265.033 118.2C261.599 117.544 258.122 117.138 254.63 116.986C252.722 116.853 250.805 117.008 248.943 117.446C247.439 117.849 246.03 118.547 244.799 119.5C243.677 120.409 242.685 121.468 241.852 122.647C241.991 122.277 242.184 121.93 242.424 121.616C243.032 120.727 243.765 119.93 244.6 119.249C245.844 118.228 247.288 117.478 248.839 117.047C250.736 116.575 252.696 116.403 254.647 116.536C258.167 116.683 261.668 117.135 265.111 117.888C266.428 118.183 267.486 118.469 268.205 118.685C268.583 118.772 268.949 118.899 269.298 119.067Z"
        fill="#263238" />
    <path
        d="M183.117 107.315C183.301 107.139 183.501 106.982 183.715 106.846C184.31 106.434 184.946 106.085 185.614 105.806C188.1 104.759 190.859 104.546 193.477 105.199C195.288 105.641 196.967 106.509 198.375 107.731C199.945 109.151 201.329 110.765 202.492 112.533C203.777 114.456 205.16 116.31 206.636 118.09C208.236 119.98 209.975 121.747 211.838 123.378C215.669 126.716 219.813 129.447 223.974 130.782C225.946 131.448 228.013 131.791 230.095 131.796C231.9 131.868 233.689 131.426 235.253 130.521C236.506 129.708 237.599 128.67 238.478 127.461C239.284 126.412 239.917 125.45 240.437 124.67L241.625 122.867C241.754 122.652 241.899 122.446 242.058 122.251C241.958 122.485 241.836 122.708 241.694 122.919L240.584 124.765C240.09 125.563 239.475 126.499 238.677 127.609C237.804 128.865 236.701 129.944 235.426 130.79C233.816 131.748 231.967 132.229 230.095 132.177C227.971 132.188 225.859 131.851 223.844 131.18C219.57 129.811 215.375 127.089 211.508 123.725C209.624 122.078 207.867 120.29 206.255 118.376C204.774 116.582 203.391 114.71 202.111 112.767C200.969 111.023 199.618 109.425 198.089 108.008C196.731 106.813 195.109 105.957 193.355 105.511C190.799 104.848 188.099 105.009 185.64 105.971C184.763 106.347 183.919 106.796 183.117 107.315Z"
        fill="#263238" />
    <path
        d="M288.763 124.558C287.827 120.787 283.952 118.36 280.094 117.753C276.236 117.146 272.344 117.935 268.486 118.429C264.629 118.923 260.511 119.044 257.052 117.25C255.954 119.285 255.402 121.57 255.448 123.882H257.477C257.901 126.812 260.58 129.083 263.467 129.681C266.354 130.279 268.261 130.331 270.966 129.153C273.809 127.904 277.493 126.023 280.285 125.043C283.076 124.064 286.162 123.578 288.954 124.497"
        fill="#37474F" />
    <path
        d="M259.076 118.148C258.98 118.428 258.864 118.7 258.73 118.963C258.454 119.604 258.22 120.261 258.027 120.931C257.831 121.612 257.689 122.308 257.603 123.012C257.591 123.303 257.559 123.592 257.507 123.879C257.466 123.591 257.466 123.299 257.507 123.012C257.552 122.295 257.677 121.586 257.88 120.897C258.072 120.206 258.331 119.535 258.652 118.894C258.758 118.627 258.901 118.376 259.076 118.148Z"
        fill="#263238" />
    <path
        d="M257.641 122.233C257.283 122.238 256.926 122.206 256.575 122.138C256.213 122.126 255.853 122.08 255.5 121.999C255.859 121.917 256.233 121.917 256.592 121.999C256.955 122 257.313 122.08 257.641 122.233Z"
        fill="#263238" />
    <path
        d="M258.08 119.897C258.08 119.897 257.681 119.654 257.152 119.463C256.624 119.272 256.164 119.264 256.164 119.212C256.515 119.149 256.877 119.179 257.213 119.299C257.549 119.419 257.848 119.625 258.08 119.897Z"
        fill="#263238" />
    <path
        d="M262.105 118.654H262.712C263.102 118.654 263.683 118.654 264.446 118.654C266.571 118.632 268.689 118.414 270.774 118.004C273.912 117.349 277.141 117.261 280.31 117.744C282.196 118.046 283.991 118.765 285.564 119.851C287.262 121.052 288.527 122.77 289.17 124.748L289.222 124.939L289.04 124.853C288.225 124.456 287.343 124.215 286.439 124.142C284.239 124.093 282.052 124.485 280.007 125.295C278.067 125.96 276.165 126.733 274.311 127.609C273.444 128.025 272.577 128.476 271.71 128.806C270.889 129.188 270.037 129.499 269.162 129.733C267.571 130.108 265.922 130.173 264.307 129.924C262.972 129.735 261.696 129.252 260.571 128.511C259.729 127.936 259.018 127.192 258.481 126.326C258.147 125.786 257.888 125.203 257.71 124.592C257.597 124.168 257.562 123.942 257.562 123.942C257.767 124.776 258.098 125.574 258.542 126.309C259.082 127.158 259.794 127.885 260.631 128.441C261.747 129.171 263.012 129.642 264.333 129.82C265.93 130.055 267.558 129.981 269.127 129.603C269.995 129.373 270.84 129.063 271.65 128.676C272.517 128.303 273.383 127.895 274.25 127.479C276.109 126.592 278.017 125.811 279.963 125.139C282.033 124.327 284.242 123.932 286.465 123.977C287.398 124.053 288.309 124.299 289.152 124.705L289.031 124.809C288.4 122.869 287.16 121.184 285.494 120.007C283.937 118.933 282.16 118.22 280.293 117.917C277.151 117.437 273.95 117.513 270.835 118.143C268.744 118.547 266.619 118.745 264.489 118.732C262.929 118.715 262.105 118.654 262.105 118.654Z"
        fill="#263238" />
    <path
        d="M288.868 124.402C288.178 123.444 287.378 122.571 286.484 121.801C285.497 120.996 284.364 120.389 283.147 120.015C281.656 119.56 280.08 119.459 278.543 119.72C277.004 120.027 275.535 120.615 274.209 121.454C272.96 122.182 271.833 122.893 270.819 123.37C270.03 123.779 269.187 124.071 268.314 124.237C268.079 124.279 267.841 124.303 267.603 124.306C267.438 124.306 267.352 124.306 267.352 124.306C268.51 124.072 269.63 123.678 270.68 123.136C271.651 122.633 272.744 121.905 274.001 121.151C275.352 120.263 276.862 119.645 278.448 119.33C279.902 119.074 281.394 119.145 282.817 119.538C284.24 119.931 285.558 120.636 286.675 121.601C287.339 122.186 287.922 122.856 288.409 123.595C288.6 123.841 288.755 124.112 288.868 124.402Z"
        fill="#263238" />
    <path
        d="M276.83 119.977C275.157 120.699 273.363 121.099 271.541 121.156C269.731 121.362 267.898 121.221 266.141 120.74C266.141 120.61 268.559 120.922 271.507 120.74C274.454 120.558 276.795 119.847 276.83 119.977Z"
        fill="#263238" />
    <path
        d="M321.053 116.469C321.053 116.469 324.972 117.284 326.636 117.648C327.183 117.769 327.737 117.648 328.283 117.778C330.684 118.171 333.137 118.127 335.522 117.648C337.178 117.041 337.256 119.156 335.461 120.066C334.563 120.565 333.587 120.908 332.575 121.081L336.909 124.548C337.132 124.729 337.28 124.985 337.325 125.268L338.426 132.896C338.492 133.21 338.439 133.537 338.28 133.816C338.12 134.094 337.864 134.303 337.559 134.405C337.483 134.443 337.4 134.466 337.315 134.472C337.23 134.478 337.145 134.467 337.064 134.439C336.983 134.412 336.909 134.369 336.845 134.312C336.781 134.256 336.729 134.187 336.692 134.11L336.814 135.133C336.874 135.485 336.791 135.846 336.585 136.137C336.378 136.428 336.065 136.625 335.713 136.685C335.361 136.745 335 136.662 334.709 136.456C334.418 136.249 334.221 135.936 334.161 135.584C334.157 135.561 334.157 135.537 334.161 135.515L332.644 136.381C332.644 136.381 331.638 137.422 330.555 135.974C329.688 134.778 326.974 130.027 326.974 130.027C326.974 130.027 315.549 125.216 315.705 123.291L321.053 116.469Z"
        fill="#FFBE9D" />
    <path
        d="M334.189 135.576C334.037 134.97 333.932 134.353 333.877 133.73C333.704 132.603 333.374 131.017 333.149 129.283C332.993 128.416 332.794 127.592 332.603 126.908C332.487 126.606 332.27 126.354 331.987 126.197L331.19 125.694C330.641 125.39 330.129 125.024 329.664 124.602C330.276 124.795 330.859 125.069 331.398 125.416L332.221 125.876C332.587 126.06 332.875 126.367 333.036 126.743C333.285 127.548 333.485 128.367 333.634 129.196C333.869 130.93 334.137 132.516 334.241 133.678C334.321 134.31 334.304 134.95 334.189 135.576Z"
        fill="#B16668" />
    <path
        d="M336.724 134.103C336.542 134.103 336.256 131.364 335.553 128.035C335.469 127.274 335.221 126.54 334.825 125.885C334.389 125.413 333.92 124.972 333.421 124.567C333.09 124.289 332.737 124.039 332.363 123.822C332.094 123.674 331.93 123.64 331.93 123.605C331.93 123.57 332.12 123.553 332.433 123.657C332.854 123.822 333.25 124.044 333.611 124.316C334.157 124.697 334.665 125.13 335.129 125.608C335.605 126.302 335.903 127.103 335.995 127.939C336.308 129.368 336.525 130.816 336.646 132.274C336.736 132.879 336.762 133.492 336.724 134.103Z"
        fill="#B16668" />
    <path
        d="M327.375 126.883C327.904 127.042 328.406 127.279 328.866 127.585L329.594 127.984C329.923 128.123 330.218 128.33 330.461 128.591C330.698 128.884 330.864 129.228 330.947 129.596C331.051 129.952 331.163 130.316 331.285 130.68C331.905 132.454 332.383 134.274 332.715 136.124C331.954 134.411 331.33 132.64 330.851 130.827L330.531 129.744C330.464 129.43 330.331 129.134 330.14 128.877C329.946 128.654 329.711 128.472 329.447 128.339L328.753 127.888C328.248 127.622 327.783 127.283 327.375 126.883Z"
        fill="#B16668" />
    <path
        d="M327.68 118.638C327.732 118.464 329.353 119.097 331.147 120.146C332.942 121.195 334.294 122.287 334.199 122.4C334.103 122.513 332.734 121.533 330.922 120.536L328.625 119.201C328.289 119.05 327.973 118.861 327.68 118.638Z"
        fill="#B16668" />
    <path d="M218.955 229.698L199.5 274C199.5 274 291.294 265.138 287.378 216L218.955 229.698Z" fill="#DB0916" />
    <defs>
        <linearGradient id="paint0_linear_1295_15049" x1="302.5" y1="121.5" x2="272.5" y2="151.5"
            gradientUnits="userSpaceOnUse">
            <stop stop-color="#B82A28" />
            <stop offset="1" stop-color="#490D0C" />
        </linearGradient>
    </defs>
</svg>