<svg width="445" height="395" viewBox="0 0 445 395" fill="none" xmlns="http://www.w3.org/2000/svg">
<g filter="url(#filter0_d_1213_140966)">
<rect x="94" y="44" width="256" height="256" rx="80" fill="white"/>
</g>
<path d="M231.188 186.938H212.812C204.875 186.938 200.125 191.687 200.125 199.625V218C200.125 225.937 204.875 230.687 212.812 230.687H231.188C239.125 230.687 243.875 225.937 243.875 218V199.625C243.875 191.687 239.125 186.938 231.188 186.938ZM234.313 215.375C235.875 216.937 235.875 219.5 234.313 221.062C233.5 221.812 232.5 222.187 231.438 222.187C230.438 222.187 229.438 221.812 228.625 221.062L222 214.437L215.437 221.062C214.625 221.812 213.625 222.187 212.562 222.187C211.562 222.187 210.562 221.812 209.75 221.062C208.187 219.5 208.187 216.937 209.75 215.375L216.375 208.75L209.75 202.187C208.187 200.625 208.187 198.062 209.75 196.5C211.312 194.937 213.875 194.937 215.437 196.5L222 203.125L228.625 196.5C230.188 194.937 232.75 194.937 234.313 196.5C235.875 198.062 235.875 200.625 234.313 202.187L227.687 208.75L234.313 215.375Z" fill="#DB0916"/>
<path opacity="0.4" d="M282.875 170.38C279.062 157.88 269.563 148.88 257.625 146.193C254.125 130.568 244.5 119.38 230.875 115.13C216 110.568 198.75 115.005 187.938 126.318C178.375 136.255 175.25 149.943 178.938 164.505C165.625 167.755 159.5 179.38 159.5 189.88C159.5 201.63 167.187 214.818 184.312 216.005H200.125V199.568C200.125 191.63 204.875 186.88 212.812 186.88H231.188C239.125 186.88 243.875 191.63 243.875 199.568V216.005H248.937C249 216.005 249.125 216.005 249.188 216.005C258.063 216.005 266.563 212.693 273.063 206.755C283.25 197.88 287 183.943 282.875 170.38Z" fill="#DB0916"/>
<g filter="url(#filter1_d_1213_140966)">
<rect x="60" y="89" width="68" height="68" rx="34" fill="white"/>
</g>
<path opacity="0.4" d="M106.982 110.031C102.049 105.115 94.0491 105.115 89.1491 110.031C85.6991 113.448 84.6658 118.365 85.9991 122.698L78.1658 130.531C77.6158 131.098 77.2324 132.215 77.3491 133.015L77.8491 136.648C78.0324 137.848 79.1491 138.981 80.3491 139.148L83.9824 139.648C84.7824 139.765 85.8991 139.398 86.4658 138.815L87.8324 137.448C88.1658 137.131 88.1658 136.598 87.8324 136.265L84.5991 133.031C84.1158 132.548 84.1158 131.748 84.5991 131.265C85.0824 130.781 85.8824 130.781 86.3658 131.265L89.6158 134.515C89.9324 134.831 90.4658 134.831 90.7824 134.515L94.3158 130.998C98.6324 132.348 103.549 131.298 106.982 127.881C111.899 122.965 111.899 114.948 106.982 110.031ZM98.1658 122.998C95.8658 122.998 93.9991 121.131 93.9991 118.831C93.9991 116.531 95.8658 114.665 98.1658 114.665C100.466 114.665 102.332 116.531 102.332 118.831C102.332 121.131 100.466 122.998 98.1658 122.998Z" fill="#DB0916"/>
<path d="M98.1667 122.997C100.468 122.997 102.333 121.132 102.333 118.831C102.333 116.53 100.468 114.664 98.1667 114.664C95.8655 114.664 94 116.53 94 118.831C94 121.132 95.8655 122.997 98.1667 122.997Z" fill="#DB0916"/>
<g filter="url(#filter2_d_1213_140966)">
<rect x="289" y="223" width="96" height="96" rx="48" fill="white"/>
</g>
<path opacity="0.4" d="M310.336 273.353V268.66C310.336 265.886 312.603 263.593 315.403 263.593C320.229 263.593 322.203 260.18 319.776 255.993C318.389 253.593 319.216 250.473 321.643 249.086L326.256 246.446C328.363 245.193 331.083 245.94 332.336 248.046L332.629 248.553C335.029 252.74 338.976 252.74 341.403 248.553L341.696 248.046C342.949 245.94 345.669 245.193 347.776 246.446L352.389 249.086C354.816 250.473 355.643 253.593 354.256 255.993C351.829 260.18 353.803 263.593 358.629 263.593C361.403 263.593 363.696 265.86 363.696 268.66V273.353C363.696 276.126 361.429 278.42 358.629 278.42C353.803 278.42 351.829 281.833 354.256 286.02C355.643 288.446 354.816 291.54 352.389 292.926L347.776 295.566C345.669 296.82 342.949 296.073 341.696 293.966L341.403 293.46C339.003 289.273 335.056 289.273 332.629 293.46L332.336 293.966C331.083 296.073 328.363 296.82 326.256 295.566L321.643 292.926C319.216 291.54 318.389 288.42 319.776 286.02C322.203 281.833 320.229 278.42 315.403 278.42C312.603 278.42 310.336 276.126 310.336 273.353Z" fill="#DB0916"/>
<path d="M337.003 279.669C341.789 279.669 345.669 275.789 345.669 271.003C345.669 266.216 341.789 262.336 337.003 262.336C332.216 262.336 328.336 266.216 328.336 271.003C328.336 275.789 332.216 279.669 337.003 279.669Z" fill="#DB0916"/>
<defs>
<filter id="filter0_d_1213_140966" x="34" y="0" width="376" height="376" filterUnits="userSpaceOnUse" color-interpolation-filters="sRGB">
<feFlood flood-opacity="0" result="BackgroundImageFix"/>
<feColorMatrix in="SourceAlpha" type="matrix" values="0 0 0 0 0 0 0 0 0 0 0 0 0 0 0 0 0 0 127 0" result="hardAlpha"/>
<feOffset dy="16"/>
<feGaussianBlur stdDeviation="30"/>
<feComposite in2="hardAlpha" operator="out"/>
<feColorMatrix type="matrix" values="0 0 0 0 0 0 0 0 0 0 0 0 0 0 0 0 0 0 0.1 0"/>
<feBlend mode="normal" in2="BackgroundImageFix" result="effect1_dropShadow_1213_140966"/>
<feBlend mode="normal" in="SourceGraphic" in2="effect1_dropShadow_1213_140966" result="shape"/>
</filter>
<filter id="filter1_d_1213_140966" x="0" y="45" width="188" height="188" filterUnits="userSpaceOnUse" color-interpolation-filters="sRGB">
<feFlood flood-opacity="0" result="BackgroundImageFix"/>
<feColorMatrix in="SourceAlpha" type="matrix" values="0 0 0 0 0 0 0 0 0 0 0 0 0 0 0 0 0 0 127 0" result="hardAlpha"/>
<feOffset dy="16"/>
<feGaussianBlur stdDeviation="30"/>
<feComposite in2="hardAlpha" operator="out"/>
<feColorMatrix type="matrix" values="0 0 0 0 0 0 0 0 0 0 0 0 0 0 0 0 0 0 0.1 0"/>
<feBlend mode="normal" in2="BackgroundImageFix" result="effect1_dropShadow_1213_140966"/>
<feBlend mode="normal" in="SourceGraphic" in2="effect1_dropShadow_1213_140966" result="shape"/>
</filter>
<filter id="filter2_d_1213_140966" x="229" y="179" width="216" height="216" filterUnits="userSpaceOnUse" color-interpolation-filters="sRGB">
<feFlood flood-opacity="0" result="BackgroundImageFix"/>
<feColorMatrix in="SourceAlpha" type="matrix" values="0 0 0 0 0 0 0 0 0 0 0 0 0 0 0 0 0 0 127 0" result="hardAlpha"/>
<feOffset dy="16"/>
<feGaussianBlur stdDeviation="30"/>
<feComposite in2="hardAlpha" operator="out"/>
<feColorMatrix type="matrix" values="0 0 0 0 0 0 0 0 0 0 0 0 0 0 0 0 0 0 0.1 0"/>
<feBlend mode="normal" in2="BackgroundImageFix" result="effect1_dropShadow_1213_140966"/>
<feBlend mode="normal" in="SourceGraphic" in2="effect1_dropShadow_1213_140966" result="shape"/>
</filter>
</defs>
</svg>
