<svg width="153" height="40" viewBox="0 0 153 40" fill="none" xmlns="http://www.w3.org/2000/svg">
    <path
        d="M0.333333 20C0.333333 21.4728 1.52724 22.6667 3 22.6667C4.47276 22.6667 5.66667 21.4728 5.66667 20C5.66667 18.5272 4.47276 17.3333 3 17.3333C1.52724 17.3333 0.333333 18.5272 0.333333 20ZM3 20.5H3.98214V19.5H3V20.5ZM5.94643 20.5H7.91071V19.5H5.94643V20.5ZM9.875 20.5H11.8393V19.5H9.875V20.5ZM13.8036 20.5H15.7679V19.5H13.8036V20.5ZM17.7321 20.5H19.6964V19.5H17.7321V20.5ZM21.6607 20.5H23.625V19.5H21.6607V20.5ZM25.5893 20.5H27.5536V19.5H25.5893V20.5ZM29.5179 20.5H31.4821V19.5H29.5179V20.5ZM33.4464 20.5H35.4107V19.5H33.4464V20.5ZM37.375 20.5H39.3393V19.5H37.375V20.5ZM41.3036 20.5H43.2679V19.5H41.3036V20.5ZM45.2321 20.5H47.1964V19.5H45.2321V20.5ZM49.1607 20.5H51.125V19.5H49.1607V20.5ZM53.0893 20.5H55.0536V19.5H53.0893V20.5ZM57.0179 20.5H58V19.5H57.0179V20.5Z"
        fill="#DB0916" />
    <rect x="58" width="40" height="40" rx="20" fill="#FFEFEF" />
    <path opacity="0.4"
        d="M88 22V25C88 26.66 86.66 28 85 28H84C84 26.9 83.1 26 82 26C80.9 26 80 26.9 80 28H76C76 26.9 75.1 26 74 26C72.9 26 72 26.9 72 28H71C69.34 28 68 26.66 68 25V22H79C80.1 22 81 21.1 81 20V13H82.84C83.56 13 84.22 13.39 84.58 14.01L86.29 17H85C84.45 17 84 17.45 84 18V21C84 21.55 84.45 22 85 22H88Z"
        fill="#DB0916" />
    <path
        d="M74 30C75.1046 30 76 29.1046 76 28C76 26.8954 75.1046 26 74 26C72.8954 26 72 26.8954 72 28C72 29.1046 72.8954 30 74 30Z"
        fill="#DB0916" />
    <path
        d="M82 30C83.1046 30 84 29.1046 84 28C84 26.8954 83.1046 26 82 26C80.8954 26 80 26.8954 80 28C80 29.1046 80.8954 30 82 30Z"
        fill="#DB0916" />
    <path
        d="M88 20.53V22H85C84.45 22 84 21.55 84 21V18C84 17.45 84.45 17 85 17H86.29L87.74 19.54C87.91 19.84 88 20.18 88 20.53Z"
        fill="#DB0916" />
    <path
        d="M80 10H72C70.05 10 68.43 11.4 68.08 13.25H73C73.41 13.25 73.75 13.59 73.75 14C73.75 14.41 73.41 14.75 73 14.75H68V16.25H71C71.41 16.25 71.75 16.59 71.75 17C71.75 17.41 71.41 17.75 71 17.75H68V19.25H69C69.41 19.25 69.75 19.59 69.75 20C69.75 20.41 69.41 20.75 69 20.75H68V22H79C80.1 22 81 21.1 81 20V11C81 10.45 80.55 10 80 10Z"
        fill="#DB0916" />
    <path
        d="M68.08 13.25H67C66.59 13.25 66.25 13.59 66.25 14C66.25 14.41 66.59 14.75 67 14.75H68V14C68 13.74 68.03 13.49 68.08 13.25Z"
        fill="#DB0916" />
    <path d="M67 16.25C66.59 16.25 66.25 16.59 66.25 17C66.25 17.41 66.59 17.75 67 17.75H68V16.25H67Z" fill="#DB0916" />
    <path d="M67 19.25C66.59 19.25 66.25 19.59 66.25 20C66.25 20.41 66.59 20.75 67 20.75H68V19.25H67Z" fill="#DB0916" />
    <path
        d="M153 20L148 17.1132V22.8868L153 20ZM98 20.5H98.9821V19.5H98V20.5ZM100.946 20.5H102.911V19.5H100.946V20.5ZM104.875 20.5H106.839V19.5H104.875V20.5ZM108.804 20.5H110.768V19.5H108.804V20.5ZM112.732 20.5H114.696V19.5H112.732V20.5ZM116.661 20.5H118.625V19.5H116.661V20.5ZM120.589 20.5H122.554V19.5H120.589V20.5ZM124.518 20.5H126.482V19.5H124.518V20.5ZM128.446 20.5H130.411V19.5H128.446V20.5ZM132.375 20.5H134.339V19.5H132.375V20.5ZM136.304 20.5H138.268V19.5H136.304V20.5ZM140.232 20.5H142.196V19.5H140.232V20.5ZM144.161 20.5H146.125V19.5H144.161V20.5ZM148.089 20.5H150.054V19.5H148.089V20.5Z"
        fill="#DB0916" />
</svg>
