<svg width="154" height="65" viewBox="0 0 154 65" fill="none" xmlns="http://www.w3.org/2000/svg">
<path fill-rule="evenodd" clip-rule="evenodd" d="M147.545 0C151.11 0 154 2.91014 154 6.5C154 10.0899 151.11 13 147.545 13H110.659C114.224 13 117.114 15.9101 117.114 19.5C117.114 23.0899 114.224 26 110.659 26H130.946C134.511 26 137.401 28.9101 137.401 32.5C137.401 36.0899 134.511 39 130.946 39H121.564C117.07 39 113.425 41.9101 113.425 45.5C113.425 47.8929 115.27 50.0601 118.958 52C122.523 52 125.413 54.9101 125.413 58.4999C125.413 62.0898 122.523 65 118.958 65H42.4191C38.8541 65 35.9641 62.0898 35.9641 58.4999C35.9641 54.9101 38.8541 52 42.4191 52H6.45508C2.89003 52 0 49.0898 0 45.5C0 41.9101 2.89003 39 6.45508 39H43.3413C46.9063 39 49.7964 36.0899 49.7964 32.5C49.7964 28.9101 46.9063 26 43.3413 26H20.2874C16.7223 26 13.8324 23.0899 13.8324 19.5C13.8324 15.9101 16.7223 13 20.2874 13H57.1736C53.6086 13 50.7186 10.0899 50.7186 6.5C50.7186 2.91014 53.6086 0 57.1736 0H147.545ZM147.545 26C151.11 26 154 28.9101 154 32.5C154 36.0899 151.11 39 147.545 39C143.98 39 141.09 36.0899 141.09 32.5C141.09 28.9101 143.98 26 147.545 26Z" fill="#FFEFEF"/>
<path opacity="0.4" d="M103.471 21.0763L82.0012 33.4975L60.5312 21.0763C61.4812 19.3188 62.8588 17.775 64.4025 16.92L77.085 9.89C79.7925 8.37 84.21 8.37 86.9175 9.89L99.6 16.92C101.144 17.775 102.521 19.3188 103.471 21.0763Z" fill="#DB0916"/>
<path opacity="0.6" d="M82.0034 33.4994V56.2519C80.2222 56.2519 78.4409 55.8719 77.0872 55.1119L64.4047 48.0819C61.5309 46.4906 59.1797 42.5006 59.1797 39.2231V25.7806C59.1797 24.2606 59.7022 22.5981 60.5334 21.0781L82.0034 33.4994Z" fill="#DB0916"/>
<path d="M104.824 25.7806V39.2231C104.824 42.5006 102.472 46.4906 99.5987 48.0819L86.9162 55.1119C85.5625 55.8719 83.7812 56.2519 82 56.2519V33.4994L103.47 21.0781C104.301 22.5981 104.824 24.2606 104.824 25.7806Z" fill="#DB0916"/>
<path d="M53.5 53H46.0668M49.2489 45H33.6331M28.3378 45H24.5" stroke="#DB0916" stroke-width="1.5" stroke-linecap="round" stroke-linejoin="round"/>
<path d="M117.578 6H105.5M122.5 6H120.938" stroke="#DB0916" stroke-width="1.5" stroke-linecap="round" stroke-linejoin="round"/>
<path d="M129.5 32H122.5" stroke="#DB0916" stroke-width="1.5" stroke-linecap="round" stroke-linejoin="round"/>
</svg>
